<?xml version="1.0" encoding="utf-8"?>
<!-- Generator: Adobe Illustrator 22.0.0, SVG Export Plug-In . SVG Version: 6.00 Build 0)  -->
<svg version="1.1" id="Layer_1" xmlns="http://www.w3.org/2000/svg" xmlns:xlink="http://www.w3.org/1999/xlink" x="0px" y="0px"
	 viewBox="0 0 1920 1080" style="enable-background:new 0 0 1920 1080;" xml:space="preserve">
<style type="text/css">
	.st0{opacity:0.25;fill:#7AC943;}
	.st1{clip-path:url(#SVGID_2_);}
	.st2{clip-path:url(#SVGID_4_);}
	.st3{fill:#EDF0AB;}
	.st4{fill:url(#SVGID_5_);}
	.st5{fill:url(#SVGID_6_);}
	.st6{fill:#FFFFFF;}
	.st7{fill:#FCF8C7;}
	.st8{fill:#F8F5B9;}
	.st9{fill:#DBE9AE;}
	.st10{fill:#BEDEAC;}
	.st11{fill:#AECFA4;}
	.st12{fill:#7AA981;}
	.st13{fill:#4A7C65;}
	.st14{fill:#285843;}
</style>
<path class="st0" d="M1718.8-750.6c3.7-16.8,2.5-34.2,4.3-51.9c55.6-536.1-481.4-680.1-742.6-673c-310,8.4-514.8,265.7-586.7,386.3
	C325.4-1003,277.6-957.7,229-952.5c-16.8-1-33.8-1.1-51-0.3C-58-941.3-218.6-758.3-261.8-530.6c-26.1,151.1-191,359.8-232.4,383.1
	C-635.9-105-734.6-13.4-759.6,184.2C-775.7,311.6-708,456.6-604,569.7c33.7,49.3,115.4,173.7,182.3,315
	c64.1,177.8,204.7,341.2,361.2,373c206.7,42.1,327.2-32.3,414.1-166.8l3.7,9.8c0,0,32.8-66,230.8-98.3
	c45.7,20.2,100.8,38.9,167,55.8c253.1,64.6,517.7-23.8,613.3-266.9c21.8-55.4,32.4-112.5,32.9-168.7c29.1-16.2,66.9-31.8,114.2-48.8
	c137.4-29.5,270.3-144.3,377.8-435.2C1977.5-89.4,1922.6-603,1718.8-750.6z"/>
<path class="st0" d="M1846-718.1c55.6-536.1-604.3-676.5-865.5-669.4c-310,8.4-514.8,265.7-586.7,386.3
	C325.4-914.9,277.6-869.7,229-864.4c-16.8-1-33.8-1.1-51-0.3C-58-853.3-218.6-670.3-261.8-442.6c-26.1,151.1-191,359.8-232.4,383.1
	C-635.9-16.9-734.6,74.6-759.6,272.3C-775.7,399.6-708,544.6-604,657.7c33.7,49.3,115.4,173.7,182.3,315
	c64.1,177.8,204.7,341.2,361.2,373c206.7,42.1,327.2-32.3,414.1-166.8l3.7,9.8c0,0,32.8-66,230.8-98.3
	c45.7,20.2,100.8,38.9,167,55.8c253.1,64.6,517.7-23.8,613.3-266.9c21.8-55.4,32.4-112.5,32.9-168.7c29.1-16.2,66.9-31.8,114.2-48.8
	c137.4-29.5,270.3-144.3,377.8-435.2"/>
<g>
	<defs>
		<path id="SVGID_1_" d="M1823.7-510.4c4.4-16.4,6.7-33.3,6.7-50.7c0-256.7-500.7-528.1-757.4-533.5
			c-304.8-6.5-457.6,73.9-534,188.9c-71.3,81.4-120.4,123.5-168.3,126.4c-16.4-1.8-33.1-2.7-50-2.7c-232.3,0-398.6,172-451.9,393.5
			C-240.8-119.7-335.8-44.4-377.5-23.4c-141.1,35-242.4,120.2-276.3,313.1c-21.9,124.3,37.7,269.8,134.5,385.8
			c30.8,50,105,176,164,317.9c54.5,177.6,184.8,344.7,336.9,383.4c200.9,51.1,322.8-16.2,414.5-144.1l3.2,9.8
			c0,0,35.4-63.2,231.3-85.6c43.9,22,97.1,42.9,161.3,62.7c245.4,75.4,509.3,1.2,614.8-232.9c24-53.4,37.2-108.9,40.3-164.1
			c29.3-14.5,67.2-28.1,114.5-42.5c136.3-22.4,272.3-128.8,391.6-409.3C2046.4,150.9,2016.8-355.9,1823.7-510.4z"/>
	</defs>
	<clipPath id="SVGID_2_">
		<use xlink:href="#SVGID_1_"  style="overflow:visible;"/>
	</clipPath>
	<g class="st1">
		<g>
			<defs>
				<rect id="SVGID_3_" x="-1187.5" y="-1121.2" width="3218.9" height="2529.1"/>
			</defs>
			<clipPath id="SVGID_4_">
				<use xlink:href="#SVGID_3_"  style="overflow:visible;"/>
			</clipPath>
			<g class="st2">
				<rect x="-1187.5" y="-1121.2" class="st3" width="3218.9" height="2529.1"/>
				<g>
					
						<radialGradient id="SVGID_5_" cx="57.7931" cy="1889.3247" r="651.8249" gradientTransform="matrix(1 0 0 -1 0 1082)" gradientUnits="userSpaceOnUse">
						<stop  offset="0.276" style="stop-color:#FFFFFF;stop-opacity:0.95"/>
						<stop  offset="0.5967" style="stop-color:#FFFFFF;stop-opacity:0.6512"/>
						<stop  offset="0.8273" style="stop-color:#FFFFFF;stop-opacity:0"/>
					</radialGradient>
					<circle class="st4" cx="57.8" cy="-807.3" r="651.8"/>
					
						<radialGradient id="SVGID_6_" cx="57.7931" cy="1889.3247" r="441.9074" gradientTransform="matrix(1 0 0 -1 0 1082)" gradientUnits="userSpaceOnUse">
						<stop  offset="0.276" style="stop-color:#FFFFFF;stop-opacity:0.95"/>
						<stop  offset="0.5967" style="stop-color:#FFFFFF;stop-opacity:0.6512"/>
						<stop  offset="0.8273" style="stop-color:#FFFFFF;stop-opacity:0"/>
					</radialGradient>
					<circle class="st5" cx="57.8" cy="-807.3" r="441.9"/>
					<circle class="st6" cx="57.8" cy="-807.3" r="244.9"/>
				</g>
				<path class="st7" d="M2090.5-327.9c-3.4,15.2-6.9,30.3-10.3,45.5C1003.5-155-99.2-250.7-1138-561.5
					c-27.4-8.3-55.9-17.2-75.4-38.2c-28.1-30.3-28.7-75.9-28.1-117c3.4-187.8,7.1-375.5,10.6-563.3
					c124.6,52.2,260.7,115.9,311.3,241c45.3-30.8,116.1-10.3,138.2,39.8c49.9-33.3,129.7,13.1,125.1,73.1
					c56.1-17.9,128.5,19.5,157.5,70.8c32.6-14.9,64.4,26.7,66.9,62.5s-7.1,75.2,11.7,105.8c23.9,38.9,81.2,40.7,123.7,24.6
					c42.5-16.1,80.7-45.1,125.5-54c44.8-9,101.9,14.5,104.8,60.2c11-49.4,66.2-78.9,117-77.5c50.8,1.4,97.7,25.5,142.6,49.2
					c59.5,31.3,119.1,62.8,178.4,94c39.5-46.4,117.7-53.1,164.6-14c10.3-57.5,94-84.8,136.3-44.4c12.6,12.2,21.6,28.5,37,37.2
					c23.7,13.6,53.8,3.7,77.3-10.3c23.5-14,45.1-32.9,71.7-37.9c26.7-5.3,60.5,11,60.5,38.4c14.7-45.3,54.3-81.4,100.5-92.4
					c46.2-11,97.7,3.7,131.3,37.5c-4.1-48.3,49.4-85.8,97.9-83.5c48.5,2.3,91,31.3,130.8,59.3c-0.9-38.6,24.1-76.6,60.2-90.6
					c36.1-14,80.2-3,105.5,26.2c-2.1-45.5,24.8-91,65.8-111.1c40.9-20,93.3-13.6,128.1,15.9c14-77.7,71-146,144.8-173.8
					c73.8-27.8,161.6-14.3,223.5,34.5c-30.6,24.1-9.9,63.7-2.8,102.1C2140.2-712.8,2132.1-511.2,2090.5-327.9z"/>
				<path class="st8" d="M2056.5,199c9.2,5.7,18.4,11.3,27.6,17C976.6,195.1-125.7,162-1231.1,90.5c-4.8,6.2-9.7,12.2-14.5,18.4
					c38.4-351.3,30.3-707.5-23.9-1056.5c60.7-36.8,152.4,3.9,166,73.6c63-21.8,140.3,13.3,164.9,75.4c22.3-34.5,64.8-55,105.8-50.8
					c40.9,4.1,86,28.1,100.9,66.4c32.2-14.7,72.9-8.3,98.9,15.6c26,23.9,35.6,64.1,23.5,97.3c46,6.7,81.9,54,75.9,100
					c28.1-38.6,82.8-55.6,127.6-39.5c44.8,16.1,76.3,64.1,73.1,111.7c26.9-31.5,72.2-46,112.4-36.1s73.6,43.9,82.5,84.2
					c32-38.9,82.5-61.4,132.9-59.3c50.1,2.1,98.9,28.5,127.6,69.7c39.8-35.6,83-72.7,135.9-79.8s115,32,110.6,85.1
					c60.9-30.8,148.3-19.5,194.5,30.6c-8.7-42.3,6-88.7,37.5-118.4c31.5-29.7,78.6-41.4,120.5-30.1
					c22.5-67.4,93.1-115.4,164.2-111.3c70.8,4.1,135.7,59.8,150.4,129.2c43-42.3,117.9-46.2,165.1-9c-1.4,6.9-2.8,13.8-3.9,20.7
					c36.8-31,89.4-42.5,135.9-29.7c46.4,12.9,85.5,49.9,100.9,95.6c41.8-34.5,109.2-32.2,148.5,5.1c10.6-40.7,44.8-74,85.5-83.9
					c40.7-9.9,86.5,4.6,114.3,36.1c17.9-68.3,73.6-125.5,141.4-145.5c67.8-20,145.3-2.3,197.7,45.3
					c-12.4,265.3-17.2,530.4-29.7,795.8C2081.8,196.5,2065.9,199.3,2056.5,199z"/>
				<path class="st9" d="M-1198.7-489.1c34.3-68.3,68.7-136.6,103-205.1c2.1,35.4,10.3,70.6,24.4,103.2
					c7.1-27.8,14.3-55.6,21.4-83.5c17,15.2,28.7,36.3,32.4,58.9c19.3-47.4,41.6-93.6,66.4-138.4c27.1,67.1,46.7,137.3,58.2,208.8
					c12.2-44.1,33.1-85.8,61.4-121.9c3.9,51.7,7.8,103.2,12,155c22.1-52.7,52.9-101.6,90.8-144.4c9.2,72,12.2,144.6,9.4,217
					c10.3-27.6,30.1-51.3,55.4-66.4c-4.1,57-0.2,114.7,11.7,170.8c22.1-38.4,44.1-77,66.2-115.4c0.5,60,7.8,120,22.1,178.2
					c2.8,0.5,4.4,0.9,2.3-1.1c-2.1-1.8-0.9-5.3,0.2-7.8c17.7-35.9,40-69.4,66-100c4.8,32.6,11.7,65.1,20.9,96.8
					c-1.8-14.5,7.1-27.8,15.4-39.8c18.9-26.9,37.9-53.8,56.8-80.5c7.4,47.1,17.5,94,30.6,140c0.7,2.1,1.4,4.6,3.4,5.3
					c2.1,0.7,4.8-2.1,3-3.4c19.3-40.2,44.4-87.6,63.7-127.8c0.5,32.4,8.7,64.6,23.9,93.1c15.4-62.3,36.6-123,63-181.4
					c8,84.2,33.6,166.5,74.5,240.3c14.9-45.1,29.9-90.1,45.1-135.2c6.2,29,14,63.9,28.7,89.4c30.3-57,54.7-117.3,72.7-179.3
					c21.6,68.3,39.3,137.7,52.9,208.1c18.4-30.8,35.9-62.3,52.2-94.5c15.6,50.6,34,100.2,55.2,148.8c4.6-25.8,15.9-50.1,32.4-70.4
					c15.6,22.3,31.5,44.6,47.1,66.9c15.6-51.7,34.9-102.3,57.7-151.3c7.6,48.7,26.4,95.9,54.5,136.6c12-33.8,27.6-66.2,46.7-96.6
					c29.2,50.1,58.4,100,87.4,150.1c62.8,2.1,114,46.7,176.8,51.3c2.8,0.2,6.2,1.1,6.4,3.9c0.2,2.8-5.5,0.2-3-0.5
					c27.4-72.7,43.2-160.9,52-238.2c6.9,20.2,19.1,38.9,34.7,53.6c13.8-43.2,28.5-86.2,43.9-128.8c2.3,33.6,14.9,66.2,35.9,92.4
					c10.6-69,32-136.6,63.2-199.1c19.5,74.7,6,163.9,59.3,219.8c14.7-30.8,32.9-60.2,54.3-86.9c1.4,44.6,15.2,88.5,39.1,126
					c15.2-36.1,30.3-72.2,45.5-108.5c2.8,47.4,17,94,41.4,135c22.1-39.3,52.7-75.4,74.7-114.7c10.1,37.2,27.1,72.4,49.9,103.7
					c32.2-30.1,64.4-60.2,96.6-90.4c6.4,40.2,16.1,80.2,28.5,119.1c37-67.4,74.3-134.7,111.3-202.3c-4.6,72.9,6.9,146.7,33.6,214.7
					c11.5-60.5,34.7-118.6,68.1-170.4c4.1,67.1,20.7,133.6,48.7,194.7c10.8-33.1,28.5-64.1,51.5-90.1c8,41.4,27.8,80.2,56.6,111.1
					c15.6-37.2,39.1-71.3,68.5-98.9c1.1,66.2,38.9,130.6,96.1,164.2c-173.1,174.7-398.7,296.6-639.6,345.8
					c-66.2,13.6-134,21.6-201.2,13.8c-47.1-5.5-92.7-18.9-138.9-29.9c-111.5-26.9-225.6-41.6-339.4-56.1
					C339.2,134,71.6,99.9-195.8,65.7c-20.2-2.5-42.3-4.8-59.3,6.4C-411,57.2-562.3,132.4-717,155.8c-95.2,14.5-192.4,14.9-287.9,1.6
					c-66.2-9.2-135.4-27.4-182.6-74.7c-36.8-36.8-56.3-88.1-63.7-139.6c-7.4-51.5-4.1-103.9-0.7-155.7c3.7-55.4,7.4-111.1,11-166.5
					C-1237.8-420.4-1217.3-451.6-1198.7-489.1z"/>
				<path class="st10" d="M-22.2,466.4c264.9,3.4,529.7-2.3,793.9-17c115.2-6.4,230.4-14.7,345.6-11.7
					c276.8,7.4,547.4,79.1,822.2,112.9c13.8,1.6,29,3,40-5.5c10.3-7.8,13.8-21.6,15.9-34.3c8.3-51.5,6-103.9,6.4-156.1
					c1.6-205.3,46.2-407.6,90.8-607.9c-40.5,18.2-73.1,52.9-89.2,94.3c-46-55.9-78.6-122.5-94.3-193.1c-46.2,73.8-77.3,157-90.6,243
					c-9-22.8-18.2-45.3-27.1-68.1c-16.6,52.2-33.3,104.4-49.9,156.6c-20.2-39.5-40.5-79.1-60.7-118.4c-11,36.1-26,73.6-49,103.2
					c-16.1-78.9-32.2-157.7-48.1-236.6c-46.7,66.2-83.7,139.1-109.7,215.9c-21.2-38.9-39.5-79.1-55-120.7
					c-20.9,2.3-30.8,26.7-35.6,47.4c-10.1,42.3-17.9,85.3-23.5,128.5c-5.1-51-23-99.6-40.7-147.6s-35.2-96.1-52.9-143.9
					c-33.3,82.8-62.1,167.2-86.2,253.1c-5.5-52.4-20.5-103.7-43.5-151.1c-19.5,56.3-31.7,105.8-51.3,162.1
					c-33.1-88.5-59.5-179.8-79.1-272.2c-29,48.1-51.5,100-67.6,153.8c-18.6-72-37.2-143.9-55.6-215.9
					c-25.5,58.9-46,120.2-60.9,182.6c-7.1-54.5-71.3-91-70.8-146c-15.4,55.9-35.9,113.8-51.3,169.7c-25.8-49-49-99.1-69.4-150.6
					c-15.2-38.2-29-77.5-32.2-118.4C584.8-356.5,570.7-287,557-217.8c-17.2-34.5-31.7-70.6-43.2-107.4c-34,64.4-54,136.1-58.2,209
					c-23-20.7-39.8-48.1-47.6-77.9c-8,49-17.2,97.5-32.4,144.8c-26-66.2-43-135.9-50.1-206.7c-22.3,52.4-43.2,105.5-62.8,159.1
					c-9-10.1-12-24.1-14.7-37.2c-3.9-18.4-7.6-37-11.5-55.4C220.6-138,205.2-88.1,181-40.1c-17.2-42.3-30.3-86.5-39.5-131.1
					c-32.2,64.4-53.1,134.5-61.2,206C67.5-6.1,54.6-47,41.7-87.9C20.3-38.7,5.1,13.3-3.1,66.4C-20.8,27.3-35.8-13.2-47.7-54.6
					C-65.7-11.8-82.5,31.7-97.9,75.6C-124.3-0.3-145.5-78-161.8-156.9c-21.4,61.6-37.9,125.1-49.4,189.2
					c-22.3-43.7-40.2-89.4-53.6-136.6c-15.4,49.7-30.8,99.3-46.4,149c-14.7-106-19.1-213.1-13.1-320
					c-42.3,82.8-78.9,168.5-109.2,256.4c-22.8-49.2-35.4-103-37.2-157c-37.5,55.9-63.7,119.3-76.8,185.5
					c-22.5-65.5-45.3-130.8-67.8-196.4c-15.2,59.3-36.6,118.2-63.9,172.9c-26.2-88.7-42.1-180.3-47.6-272.7
					c-18.4,50.6-40,100.2-64.6,148.1c-35.2-97.7-56.1-201-61.6-304.6c-24.8,39.1-42.1,83-50.6,128.5c-27.8-22.1-35.6-60.2-41.6-95.2
					c-10.6-62.3-21.2-124.6-31.5-186.7c-43,66.4-70.4,143.7-79.6,223.3c-21.2-70.1-42.3-140-63.5-210.1
					c-30.3,108.1-60.5,215.9-90.8,324c-12.4,44.1-12.6,88.7-10.8,134.7c1.8,44.1-6.4,88.1-12.9,132
					c-20.5,139.1-21.2,281.2-2.5,420.8c1.8,13.8,4.4,28.5,13.3,39.1c8.5,9.9,21.4,14.9,34,17.9c32.9,8,67.4,6.4,101.2,4.8
					c209.7-9.7,419.4-14.7,629.3-14.7c56.1,0,112,0.2,168.1,2.5c84.4,3.2,170.1,10.6,252-9.9C-36.2,467.1-24.7,467.1-22.2,466.4z"/>
				<path class="st11" d="M239.4,757.5c25.8-12,60-7.6,87.1-6.4c47.8,2.1,95.6,7.8,143,14c43.2,5.7,85.5,15.9,128.8,23
					c38.2,6.4,77.3,8,115.9,11c58.4,4.4,116.8,3.4,175.2,3.4c62.5,0,124.2,1.8,186.5-4.8c60.9-6.4,119.8-13.1,181.2-12.4
					c50.4,0.5,101.6,2.8,152-0.5c53.3-3.4,106-10.6,159.6-10.3c49.9,0.2,99.6,2.8,149.4,3.2c23.5-1.1,46.2,2.1,68.5,9.7
					c24.8,9.7,50.4,16.1,76.8,19.5c37,2.1,71.3-13.8,107.6-14.9c17.2-0.5,27.4-1.1,38.9-15.2c5.7-7.1,9.2-13.6,12.2-22.1
					c11.7-32.9,6.9-71.3,6.9-105.5c0-18.2,0-36.1,0-54.3c0-22.1,3.2-43.5,3.7-65.5c0.5-19.8-0.5-39.5-0.2-59.3
					c0.2-18.6,3.4-36.8,3.7-55.4c0.2-14.7-3.2-26.4-3.9-40.7c-0.7-18.2-0.5-35.6-2.5-53.8c-2.3-19.8-0.2-39.8-0.5-59.5
					c-0.2-23.7-7.8-46.2-6.7-69.7c1.4-26.2,6.2-52.2,6.7-78.6c0.5-28.3-0.7-56.6-0.2-84.8c0.5-34,1.4-69.2,3.9-103
					c3.2-42.5,16.6-83.9,20.9-126.5c3.9-37.9,1.1-75.6,4.6-113.4c3.2-36.6,7.1-73.8,12.2-110.4c4.1-28.7,9.4-56.3,10.6-85.5
					c0.5-11.7,1.1-22.8,3.7-34.3c2.3,14.5-16.6,32.2-23,43.9c-6.7,12.2-12.6,25.8-18.6,38.4c-15.2,31.7-24.8,65.8-38.6,97.9
					c-5.3,12.6-12.4,22.8-20,34.3c-8.7,13.1-13.1,23.5-18.2,38.2c-3.9,11.5-9,22.5-12.9,33.8c-1.1,6-3.7,11.3-7.8,15.6
					c-6.7,7.1-19.8,13.3-29.9,12.2c-3.4-0.7-6.7-1.8-9.7-3.4c-12.4-2.1-18.4,5.5-26,14.7c-8.7,10.8-18.2,21.4-20.9,35.2
					c-3.7,18.9-4.8,35.4-12.9,53.6c-4.1,9.4-10.6,17.2-14,26.7c-2.3,8.5-4.4,16.8-6.2,25.5c-5.3,15.4-17.9,26.4-26.9,39.8
					c-5.1,7.8-9.7,15.9-13.6,24.4c-2.1,3.9-9.7,23.7-16.1,25.1c-5.1-0.2-9.2-2.5-12.4-6.4c-9.2-6.4-11.5-1.8-13.8,9
					c-4.6,22.3,0.2,47.1-0.5,69.7c-0.5,10.8-3.7,30.8-14,37.2c-12-6.9-12.9-32.2-14.7-43.9c-2.5-17.9-4.4-36.6-8.7-54
					c-2.8,3.7-2.1,17.7-3.9,23c-3.4,10.1-6.9,20.7-13.3,29.4c-5.3,7.1-10.3,11.7-13.6,20.2c-4.6,12-7.8,24.4-11.5,36.6
					c-7.6,25.5-20.9,49.2-27.6,75c-2.3,9.2-20,25.5-17,34.9c0.9,3.4,0.5,6.2-2.8,6.7c-1.4-3.4,0-6-0.5-9.4
					c-1.4-9.9-4.4-20.2-7.1-29.9c-6.2-22.1-7.1-41.4-6.9-64.4c0.2-10.3,1.1-20.2-1.1-30.3c-2.3-7.6-5.5-14.9-9.4-21.8
					c-6-14.7-2.3-30.8-2.8-46.2c-0.5-21.2-22.8-29.7-25.1-49c-0.9-7.6,0.7-14.9-0.5-22.8c-1.6-8-2.5-15.9-2.8-24.1
					c-0.9-32-0.5-64.4,0.2-96.3c0.9,6.4-6.7,14-9.4,18.9c-6,10.3-15.6,20.9-17.7,32.6c-2.3,11.5,0.5,23.5,0,35.2
					c-0.5,12.2-6.7,23.2-11,34.5c-2.5,6.4-4.6,13.1-6.2,20c-0.2,4.8-0.7,9.7-0.9,14.3c-2.8,9.2-10.3,16.3-14.5,24.8
					c-5.5,11.5-6.9,23.7-10.1,35.9c-1.1,4.6-1.4,8.3-5.1,10.1c-2.5-5.7-4.4-11.5-7.8-16.6c-2.5-2.5-4.6-5.1-6.2-8.3
					c-4.1-9.7-3.2-25.5-4.1-35.9c-1.6-22.3-8-43.5-6.7-66.2c-5.7,11.7-9.7,25.3-14.5,37.2c-7.6,19.5-13.3,39.8-21.2,59.1
					c-6.4,16.1-14.7,31.5-21.2,47.8c-14,34.5-27.1,69-40,103.9c-2.8,7.8-20.2,19.3-24.1,26.9c-5.5,11-9.4-4.4-10.3-7.6
					c-2.1-7.4-4.4-15.4-6-23c-3-13.6-3.2-27.6-7.6-40.9c-3.2-9.9-7.6-15.6-13.1-23.9c-12-18.2-10.3-29.4-11-49.4
					c-0.9-19.8-9-34.7-15.2-52.9c-4.1-12.2-0.9-24.1-2.1-36.6c-0.7-8.3-3.4-15.2-3.9-23.5c-0.5-9.4,1.1-18.6-0.2-28.1
					c-1.8-13.3-7.6-26.2-12-38.9c-7.6-22.3-4.8-46.4-4.8-69.9c0-20.7-0.5-41.6,0.2-62.3c-3.9,1.4-4.8,7.4-6.7,10.8
					c-4.8,8.3-11.7,14-14.9,23.2c-4.4,12.2-8.7,22.8-14.5,34.5c-7.8,15.6-11.3,33.1-18.9,49c-16.6,34.9-43.5,65.5-63.5,98.6
					c-8.5,13.8-15.4,28.7-24.1,42.1c-14.3,21.8-27.1,42.1-37.2,66.4c-7.6,18.9-12.4,37.5-15.9,57.3c-1.1,6.9-1.8,16.3-11,12.6
					c-8.7-3.7-9.7-19.8-11-27.1c-2.3-12.4-6.2-22.5-13.8-32.6c-9-12-14.7-25.5-20-39.1c-5.5-13.6-12.9-27.1-16.6-41.4
					c-4.8-18.4-4.4-38.2-3.9-57c1.8,11.5-6.9,21.4-11.3,31c-4.8,10.6-7.8,22.1-13.1,32.4c-9.2,18.4-11.3,38.2-18.4,57.3
					c-6.4,17.2-23.5,30.8-26.2,49.4c-0.9,6.2,1.4,11-0.9,17c-3.9,9.4-16.1,16.3-22.5,23.5c-6,6.4-10.1,18.2-17.7,22.5
					c-9.9-9.4-16.3-20.2-24.1-31c-5.3-7.1-16.8-15.2-19.5-23.5c0.7-0.5-8.7-7.8-8-8.3c-9.4-0.5-18.9-33.6-21.2-40.9
					c-4.6-15.4-2.1-26,1.4-41.2c2.8-12.4,4.8-23.2-1.1-34.9C790.1,4.5,771.5-4,763.4-20.5c-4.8-10.1-2.1-20.9-3.4-31.5
					c-1.4-9.2-3.9-16.8-9-24.6c-2.5-3.7-4.8-7.1-7.4-10.6c-2.5-7.8,1.1-16.3,2.3-23.9c0.5-9,0.9-17.7,1.4-26.7
					c1.8-10.3,6.9-19.1,6.4-29.9c-24.4,23.2-40,53.3-49.4,85.5c-4.6,15.9-12.6,82.1-39.8,65.5c-15.9-9.7-16.3-26.7-20.5-43
					c-5.1-20.2-10.6-40.2-17.2-59.8c-6-17.5-13.8-34.5-18.2-52.4c-3.4-14.5-6.2-28.5-6.9-43.5c-0.7-12.2-4.6-25.1-3.2-37.2
					c-1.8,0.2-12.2,23.5-14,27.1c-4.6,9.2-10.3,18.9-14,28.5c-5.7,14.7-8.5,30.6-13.8,45.5c-3.9,11.3-10.6,18.2-17.2,27.8
					c-8.7,12.9-14.3,27.4-22.8,40.2c-11.5,17.2-21.4,33.3-28.5,52.9c-5.5,15.2-10.6,28.7-17.7,43.5c-7.8,15.9-12.2,31.3-17.9,47.8
					c-4.6,13.3-8.7,26.7-13.3,40c-1.1,3.7-2.5,7.1-3.9,10.6c-4.1,6-6.9,7.1-13.8,6c-8.7-1.4-16.8-8.5-23.5-13.8
					c-9.7-7.8-11-19.5-16.8-29.7c-4.6-8.5-12.4-13.6-17.7-21.4c-3-4.8-5.7-9.4-8.5-14.3c-3-4.6-5.1-10.1-12.2-6
					c-11.5,6.9-7.8,36.1-10.6,47.1c-11-5.5-20.9-19.1-25.5-30.1c-5.5-12.9-10.8-26.7-15.4-40c-6.7-18.6-10.6-37.9-16.6-56.6
					c-0.9-2.5-2.5-19.8-6.7-21.2c-2.5,5.1-1.1,19.8-1.6,24.4c-1.1,6.2-2.1,12.6-2.5,19.1c-2.8,17.5-12.4,36.3-19.3,52.7
					c-8.5,20.2-13.6,36.8-12.4,59.1c0.5,8.5,5.7,19.1,3.4,27.6c-3.4,13.3-17.9,20.7-21.6,34.5c-3.7,13.3-4.8,29.2-6.7,42.8
					c-2.5,16.8,0.5,35.2-6,50.8c-2.5,6.2-11.3,10.3-10.3,17c-4.8-0.7-5.7-12.6-6.7-15.9c-3.4-10.8-6.9-21.8-11.3-32.4
					c-7.1-16.6-9.7-31.5-13.6-49c-4.1-18.2-14.3-32.2-20.5-49.4c-2.8-8-3.4-16.1-6.7-24.1c-2.5-4.4-3.7-9-3.7-13.8
					c-0.9-14.3-3.2-29.2-7.4-43c-5.1-16.6-14.3-31.3-12.9-49.4c1.8-22.3,14.7-43,20.5-64.4c2.8-10.1,11.7-30.6,6-41.4
					c-4.8,1.8-9.2,11.7-12,16.1c-7.1,10.8-15.2,20.7-20.9,32.4c-5.1,9.9-11,18.9-15.2,29.2c-6.2,15.4-9,31-14.5,46.4
					c-6.7,18.4-22.1,32.4-29.7,50.4c-8.3,20-13.3,42.5-16.6,63.7c-0.9,6.4,1.4,16.1-7.6,13.1c-8.7-2.8-6.7-13.8-6.9-20.5
					C11.1,87.8-0.6,61.8-11.9,46.6c-7.6-10.1-5.5-17.9-9-29.7c-3.9-14-12.9-25.5-15.4-40.2c-2.8-17,1.4-34.5-1.1-51.7
					c-1.1-6.9-2.1-13.8-3.2-20.7C-53.7-88.6-60.2-62.8-64.3-49c-3.2,11-2.8,22.5-7.1,33.3c-3.7,7.1-7.8,14-12.9,20.5
					c-8.3,15.2-9.7,33.6-15.6,49.7C-107.3,74-119,91-125.5,111.2c-11.3,34.7-17,70.4-24.6,105.8c-4.1,19.3-10.1,39.3-17.5,57.7
					c-3.9,9.7-10.3,18.9-16.6,4.8c-4.6-10.1-4.1-24.8-7.4-35.6c-5.5-18.2-17.2-32.4-27.1-48.5c-8.3-13.1-14.5-23.7-16.8-38.9
					c-3.2-22.5-18.4-37.5-25.8-58.6c-5.7-16.3-2.5-35.2-5.3-52.4c-3.2-19.8-10.6-36.1-16.8-54.7c-4.4-13.1-3.7-28.1-5.5-41.6
					c-1.6-10.3-3.7-20.5-6.2-30.3c-3.2-13.6-7.1-26.4-7.1-40.5c0.9-3.9,0.9-7.8-0.2-11.5c-15.9,12.4-28.7,33.1-37.2,51.5
					c-6.2,13.3-13.6,26.4-17.5,40.5c-4.1,14.9-6.2,28.7-12.2,43c-8.5,20.9-8.5,44.6-15.4,66.2c-7.6,23.2-12.4,47.6-24.8,68.7
					c-14.9,25.5-24.4,52-36.8,78.6c-3.9,8-23,27.4-21.2,37c-17-17-25.8-40.5-34.5-63c-5.1-13.6-13.1-23.9-20.2-36.3
					c-7.6-12.9-8-26-9.9-40.5c-1.8-14.5-6.2-28.5-11.5-42.3c-5.1-13.1-7.1-25.5-9.4-39.3c-3.9-26-9.2-54-7.6-80.2
					c-4.8,3.9-7.6,4.4-10.6,9.2c-6.7,10.8-9.7,26-16.1,37.5c-3.7,6.7-14.7,17.2-15.6,25.1c0.9,4.4,2.1,8.5,3.7,12.9
					c4.1,18.9-1.6,39.8-6,58.2c-5.1,21.2-9.9,39.3-10.3,61.2c-0.2,7.6-0.9,15.4-5.1,22.1c-2.8,3.9-5.7,7.6-9.2,10.8
					c-6.2,11.3-5.3,25.3-10.6,37c-4.4,9.7-23.5,27.1-23.5,38.2c0.5-6.9-10.1-12.2-13.3-17.7c-6.4-11.3-3.2-24.6-8-36.6
					c-7.1-17.2-17.7-36.6-20.2-55c-1.8-12.9-1.6-23.5-6.9-36.1c-3.9-9.7-6-20-10.1-29.7c-9-21.4-14-39.3-13.8-62.8
					c0.2-14.7,2.5-26.2-6.7-39.1c-6.2-8.5-14-14.9-23.5-19.5c-5.5-0.7-8.3-3.4-8.5-8.3c-1.6-11.3,6-22.8,3.9-34.9
					c-1.8-10.3-6-20.5-10.8-29.4c-6.9-13.1-9.9-20.2-9.7-34.9c0.2-12.4,1.1-24.1,2.8-36.3c2.1-17.5,3.2-35.2,6.9-52.4
					c1.1-5.5,4.4-11.7,3.7-17.5c-12.9,4.4-20.2,18.6-23.7,30.6c-4.6,14.7-17,26-25.1,39.3c-4.8,8-6.9,13.8-13.3,20.5
					c-4.6,4.6-10.1,9.4-13.6,15.2c-2.3,4.1-3.9,7.8-6.2,12.2c-3.7,7.4-11.3,13.6-14,21.4c-2.5,7.6-0.7,17.2-2.8,25.3
					c-2.3,10.1-6.2,19.8-9,29.7c-3.7,13.8-9.4,26.4-9.7,40.9c-0.2,7.4,0.2,14.7,0.5,22.1c0.5,12.6-3.4,14.5-11.7,23.2
					c-6.7,7.4-5.3,10.1-6.4,20.2c-1.6,14.3-9.4,27.1-9.9,41.2c-0.2,6.7,1.8,13.3-3,19.1c-9.2-0.5-6.9-12.9-7.8-18.9
					c-1.6-11-5.5-18.6-9.9-28.5c-8.7-20,1.6-42.8-4.4-63c-4.6-16.1-17-16.8-26.2-28.1c-9-11-3.7-34.5-3.7-47.4
					c0-16.1,2.5-34.7-2.8-50.1c-5.3-15.4-18.6-21.2-20.9-38.2c-3.4-26.7,1.1-51.7-11.3-77.3c-6.4-13.3-16.3-26.2-20.5-40.5
					c-4.1-13.8-0.9-28.3-6.4-41.6c-5.5-13.6-7.4-23.9-7.1-38.9c0.2-16.3-1.6-31.5-2.8-47.6c-2.1-29.2,8.3-59.8,2.3-89.2
					c-4.8,1.6-10.3,12.2-14,16.1c-6,6.4-10.6,8.3-12.6,17.9c-2.3,11,0.5,22.8-0.9,34c-1.8,14.7-7.1,29.2-12.4,43
					c-9.4,25.1-23.9,47.6-35.4,71.7c-11,23-15.9,46.2-22.5,70.4c-7.4,26.4-11.7,53.8-18.4,80.7c-3.9,15.6-4.6,29.7-4.1,45.5
					c0.5,9.2,0.5,18.6-3.7,29.9C-1177.6-70-1190-58-1198-42.6c-5.7,10.8-8.3,23-12.4,34.5c-5.1,14.3-17.7,32.4-15.6,48.5
					c18.9,146.2,24.1,306.9-5.5,451.3c-10.3,50.6-22.3,109.4,11.3,148.8c14.5,16.8,35.4,26.9,55.6,36.3c31,14.3,62.1,28.3,94.7,38.2
					c53.1,16.1,109,21.2,164.4,26c243.7,21.4,487.4,42.8,731.1,64.1c39.3,3.4,78.9,6.9,117.9,1.1c30.3-4.6,59.8-14.5,89.9-20.7
					C100.1,772,177.6,786.5,239.4,757.5z"/>
				<path class="st12" d="M-1115.5,60.2c20.2,15.9,40.5,32,60.7,47.8c-11.3-2.5-22.5-4.8-33.8-7.4c17.9,17.7,35.9,35.6,53.8,53.3
					c-14.7-5.1-29.7-10.3-44.4-15.4c19.1,20.7,38.2,41.4,57.5,62.1c-10.6-3.9-21.4-7.8-32-11.7c13.6,14,27.1,27.8,40.7,41.8
					c-9.9-3.9-19.8-7.8-29.7-11.7c13.8,20.7,27.6,41.4,41.6,61.8c17.5,21.6,34.9,43,52.4,64.6c-3.2-5.1-6.4-10.1-9.7-15.4
					c42.8,26.2,66,77.3,68.7,127.4s-11.7,99.6-30.6,146c-23.2,57.9-55.2,115.4-106.9,150.1c-52,34.7-127.8,39.5-173.4-3.2
					c-41.2-38.9-45.8-101.9-47.8-158.4c-7.4-217.7-14.7-437.3,22.8-651.8c1.8-11,4.1-22.5,11.3-31.3s20.7-13.3,29.9-6.9
					c4.1,2.8,6.7,7.1,9.2,11.5c12.2,20.7,24.1,41.2,36.3,61.8c-9.7-5.3-19.5-10.6-29.2-15.9c10.8,12.9,21.6,25.8,32.4,38.9
					c-8.5-3-16.8-6.2-25.3-9.2c15.4,16.1,30.6,32.2,46,48.3c-11.5-4.6-22.8-9.4-34.3-14c23.9,15.6,47.8,31.5,71.7,47.1
					C-1090,67.1-1102.8,63.6-1115.5,60.2z"/>
				<path class="st12" d="M-647.4,554c5.5-38.9,10.8-77.7,16.3-116.3c-3.4,0.7-6.7,1.4-10.1,2.3c6.7-16.1,13.6-32.4,20.2-48.5
					c-2.1,5.7-10.6,7.4-14.7,2.8c8.5-11.5,16.8-23,25.3-34.5c-5.3,2.3-10.8,4.6-16.1,6.9c9.7-12.4,19.5-24.8,29.2-37
					c4.1-8.3,8-16.6,12.2-24.8c-0.9-13.6,6.7-27.4,18.6-33.8c-6.2,1.4-12.4,2.8-18.6,4.1c9.9-9.9,20-20,29.9-29.9
					c-6.2,0.7-12.2,1.6-18.4,2.3c15.4-13.1,30.6-26,46-39.1c-6.9,1.6-13.8,3-20.7,4.6c13.1-13.1,26-26.4,39.1-39.5
					c-8.5,2.3-16.8,4.6-25.3,6.9c9.9-11.5,20-23,29.9-34.5c-3.9,0.7-7.6,1.6-11.5,2.3c7.6-10.6,15.4-21.4,23-32
					c-6.4,1.4-12.6,2.5-19.1,3.9c14.3-14.9,28.5-29.9,42.8-44.8c11.3,13.3,26,24.1,37.2,37.5c-9.9-4.8-19.8-9.9-29.7-14.7
					c7.1,9,14.3,17.9,21.4,27.1c-5.3,0-10.6,0-16.1,0c12.6,4.4,23.2,14.7,27.8,27.4c-6-1.6-12-3.4-17.9-5.1
					c8.5,9.2,16.8,18.4,25.3,27.6c-8.7-2.1-17.2-4.1-26-6.2c13.1,12.2,26,24.6,39.1,36.8c13.8-10.8,25.5-21.8,39.3-32.6
					c-10.1,2.1-20.2,4.1-30.3,6.4c6.2-5.7,12.4-11.5,18.6-17.5c-4.4,0-9,0-13.3,0.2c13.3-11.3,26.7-22.5,40-34
					c-2.3,1.6-4.6,3.4-6.9,5.1c8.7-9.7,17.5-19.3,26.2-29.2c-4.6,7.1-9,14-13.6,21.2c7.6-2.3,15.4-4.6,23-6.9
					c-1.4,2.5-2.5,5.1-3.9,7.6c9,5.5,17.9,11,27.1,16.8c-6.9-0.5-14-1.1-20.9-1.6c8.5,6.9,16.8,13.8,25.3,20.7
					c-2.1,0.5-4.4,1.1-6.4,1.6c2.1,6,6.9,10.8,13.1,12.6c0.2,14,11.7,27.1,25.8,29.2c9.2-7.6,23-17.2,32-24.8
					c0.7,3.4,1.1,7.1,1.8,10.6c11.5-7.8,22.8-15.6,34.3-23.5c1.8,4.1,3.7,8.5,5.5,12.6c3,0,6.2,0,9.2,0c1.8-6,7.6-10.8,13.8-11.5
					c0,7.8,0,15.4,0.2,23.2c3.2-1.4,6.4-2.8,9.7-4.1c0.7,2.3,1.6,4.8,2.3,7.1c4.4-2.1,8.7-3.9,13.1-6c8-3.7,15.4-15.9,20.7-22.8
					c1.8,4.1,3.9,8,5.7,12.2c6.9-8.5,7.1-21.6,0.9-30.3c3.2,6,6.7,12,9.9,17.9c-3.9-14.5,2.8-31.3,15.4-39.3
					c-8.5,2.3-17.2,4.6-25.8,6.9c7.8-12.6,19.8-23,33.6-28.7c-2.8-6-12-7.4-16.3-2.5C-90,94.4-81.1,86.8-71.9,79
					c-6.9,1.6-13.8,3-20.7,4.6c9.2-9.2,18.6-18.2,27.8-27.4C-43.4,65.5-24.5,74-3.1,83.2c-11.5,0-23,0-34.5,0
					c9.9,8.5,20,16.8,29.9,25.3c-7.6,0-15.4,0-23,0c9.2,9.9,18.4,19.8,27.6,29.7c-5.1,1.1-10.1,2.3-15.2,3.4
					c10.1,11.3,20.2,22.5,30.3,33.8c-7.4,1.1-14.7,2.3-22.1,3.4c14.7,18.4,29.4,37,43.9,55.4c-5.5,0.7-10.8,1.4-16.3,2.1
					c10.1,15.2,20.5,30.3,30.6,45.5c0,31.7,13.3,63.5,36.1,85.5c-12,22.1-2.5,48.7,4.1,72.9c31.3,114.5-7.6,235.2-46.2,347.4
					C29.7,824,15.7,862.1-14.2,886c-28.5,22.5-66.2,28.1-102.3,32.9c-60.7,8-121.4,16.1-182.1,24.4c-52.4,6.9-105.5,14-157.5,5.3
					c-84.8-14-161.4-71.5-198.4-149.2C-691.5,722.1-659.6,639.1-647.4,554z"/>
				<path class="st12" d="M2059.7,976.6c92.9-407.2-36.1-835.3,19.1-1249.4c-18.6,44.1-37.2,88.1-55.9,132.2
					c-2.5-1.1-5.1-2.3-7.6-3.4c-0.9,14-2.1,27.8-3,41.8c-6.7-10.1-13.6-20.2-20.2-30.1c3,19.3,6.2,38.6,9.2,57.7
					c-7.6-4.6-15.4-9.2-23-13.8c6.2,13.8,12.4,27.4,18.6,41.2c-13.6-4.1-27.1-8.5-40.5-12.6c3.9,11.3,8,22.5,12,33.6
					c-9-1.6-18.2-3-27.1-4.6c9.2,9.9,18.4,19.8,27.8,29.7c-15.2,6-30.3,12-45.8,17.9c3,7.6,17.5,15.2,23.2,9.2
					c-15.4,14.5-30.6,29.2-46,43.7c11.5-2.3,23-4.6,34.5-6.9c-16.1,13.8-32.2,27.6-48.3,41.4c15.6-5.1,31.3-10.1,46.7-15.2
					c-14.5,13.1-29,26.4-43.2,39.5c9.7-0.2,19.3-0.5,29-0.7c-3.4,1.8-7.1,4.1-7.8,7.8c-0.7,3.7,5.1,7.6,7.1,4.1
					c-17,13.8-33.8,27.6-50.8,41.4c15.6-0.5,31.3-0.9,46.9-1.4c-6.2,9.9-12.2,20-18.4,29.9c8-0.2,16.3-0.2,24.4-0.5
					c-17.2,13.3-34.5,26.7-51.7,40c13.6-1.1,26.9-2.3,40.5-3.7c-17.7,11.3-35.4,22.5-53.3,33.8c12.6-2.5,25.1-5.3,37.7-7.8
					c-10.8,12.9-21.6,25.8-32.2,38.6c13.1-2.3,26-4.6,39.1-6.9c-20,12.4-39.8,24.8-59.8,37.2c9.2-1.6,18.6-3.2,27.8-4.6
					c-17.2,14.7-34.7,29.4-52,44.1c11-0.9,22.3-2.1,33.3-3c-20,13.1-39.8,26.2-59.8,39.3c14.7-1.8,29.4-3.9,44.1-5.7
					c-22.3,9.2-44.6,18.2-66.9,27.4c7.1,0.9,14,1.8,21.2,2.8c-24.6,5.1-49.2,10.3-73.6,15.4c10.6,2.8,21.2,5.5,31.7,8.5
					c-19.5,3.4-38.9,6.7-58.4,10.1c11.7,1.1,23.5,2.5,35.2,3.7c-10.8,6-21.4,12-32.2,17.9c6.2,0,12.2,0,18.4,0
					c-20,8.5-40,17-59.8,25.5c5.3-3,10.6-6.2,15.6-9.2c-13.3-3.4-28.1-6.4-41.4-9.7c-6.9-20.2-27.1-35.4-48.7-35.9
					c4.1-9.7,14-16.8,24.6-17.5c-23.7-11.7-47.6-23.2-71.3-34.9c13.6-1.1,27.1-2.3,40.7-3.4c-20-7.4-36.8-23-45.3-42.8
					c9.4-0.7,19.1-1.4,28.5-2.1c-14.5-9.2-29-18.4-43.5-27.4c7.8-3.2,15.9-6.2,23.7-9.4c-12.4-8-24.8-16.1-37.2-24.4
					c7.6-1.6,15.4-3.2,23-4.6c-7.6-9-15.2-18.2-23-27.1c12.2,3,24.6,6,36.8,9.2c-22.3-8-39.8-28.1-45.1-51c-6,6.9-12,13.6-17.9,20.5
					c-9,9.4-17.9,19.1-26.9,28.5c7.6-3.2,14.9-6.4,22.5-9.7c-14.9,21.6-40,35.6-66.2,37.2c14.3,0.2,28.5,0.5,43,0.7
					c-24.8,13.3-49.4,26.9-74.3,40.2c8-1.4,16.3-3,24.4-4.4c-16.1,10.6-32.2,21.2-48.3,32c9.9,0,20-0.2,29.9-0.2
					c-10.8,8.5-21.4,17-32.2,25.8c9.2,0,18.4,0,27.6,0c-11.5,10.6-22.8,21.4-34.3,32c8.5,3.7,17,7.6,25.3,11.3
					c-17-1.4-34-2.8-51-4.4c6.2-4.8,12.4-9.4,18.6-14.3c-17.7-1.8-46,6-61.6-2.5c-20.9-11.7-27.8-43-13.6-62.5
					c-13.6-8.7-27.1-17.5-40.9-26.2c11.5-2.3,23-4.8,34.5-7.1c-15.4-10.3-30.6-20.5-46-30.8c10.1-1.6,20-3.4,30.1-5.1
					c-23.2-19.1-46.4-38.2-69.4-57.5c7.6-0.9,15.2-1.8,22.8-2.8c-11.7-11.7-23.2-23.7-34.9-35.4c13.8,0,27.4,0,41.2,0
					c-19.5-12.2-38.9-24.1-58.4-36.3c7.4-6,14.7-12,22.1-17.9c-14-0.2-28.1-0.5-42.1-0.9c15.4-11.5,30.6-23,46-34.5
					c-10.6,0.2-21.4,0.5-32,0.5c19.3-8.7,38.4-17.2,57.7-26c-23.9-2.3-47.8-4.8-71.7-7.1c12.2-6.7,24.6-13.6,36.8-20.2
					c-19.1-3-38.4-6.2-57.5-9.2c10.6-5.7,21.2-11.5,31.7-17.2c-15.4-4.6-30.6-9.4-46-14c12.4-6.4,24.6-12.9,37-19.3
					c-14.5-3.9-29.2-7.6-43.7-11.5c14.5-4.6,29.2-9.2,43.7-13.8c-15.4-5.3-30.6-10.8-46-16.1c11.5-6.4,23-12.9,34.5-19.1
					c-13.8-1.6-27.6-3.2-41.4-4.6c7.6-9.7,15.2-19.3,23-29c-8.7,2.1-17.2,4.4-26,6.4c6-10.8,12.2-21.6,18.2-32.4
					c-8,3.9-16.3,7.8-24.4,11.7c7.4-33.1,14.9-66.2,22.3-99.1c-10.1,18.4-20.5,36.6-30.6,55c1.4-7.4,2.8-14.5,3.9-21.8
					c-6.2,14.5-12.4,29-18.6,43.7c-0.7-5.3-1.4-10.8-2.3-16.1c-2.5,15.4-4.8,30.8-7.4,46.2c-4.6-5.7-9.2-11.5-13.8-17.5
					c6.4,14.5,12.9,28.7,19.3,43.2c-5.5-4.1-11.3-8-16.8-12.2c-0.9,13.1-1.8,26.4-3,39.5c-9.9-12.9-20-25.8-29.9-38.9
					c-3.4,16.3,2.1,34,14.3,45.5c-12.4-7.6-24.6-15.2-37-23c11.7,16.1,23.2,32.4,34.9,48.5c-6,6-4.4,17.5,2.8,21.6
					c-8.7-0.2-17.5-0.7-26.2-0.9c9.2,6,18.4,12.2,27.8,18.2c-11.5-0.7-22.8-1.6-34.3-2.3c20.9,3.7,40.2,14.9,54,31
					c-11,4.1-22.3,8-33.3,12.2C964.6,67.8,952,76,939.1,84.5c11.3-1.4,22.5-3,33.8-4.4c-18.4,11.5-36.8,23-55.2,34.5
					c9.9-2.3,20-4.6,29.9-6.9c-16.8,11.5-33.8,23-50.6,34.5c8.5,0.7,16.8,1.6,25.3,2.3c-7.6,8.3-15.4,16.6-23,25.1
					c7.8,0.9,15.9,2.1,23.7,3c-12.4,9.2-24.6,18.6-37,27.8c9.2,0,18.4-0.2,27.4-0.2c-10.8,9.9-21.4,20-32.2,29.9
					c9.9-0.7,20-1.4,29.9-2.1c-15.4,11.3-30.8,22.8-46.2,34c15.9-3.2,31.7-6.7,47.8-9.9c-20.7,15.2-41.6,30.6-62.3,45.8
					c15.4-5.1,31-10.1,46.4-15.4c-14.5,13.8-29.2,27.6-43.7,41.4c11.5-6.2,23-12.2,34.5-18.4c-12.2,13.8-24.6,27.6-36.8,41.4
					c10.8-4.6,21.4-9.2,32.2-13.8c-12.4,14.3-24.6,28.7-37,43c10.1-3.7,20-7.6,30.1-11.3c-15.2,11.5-30.6,23.2-45.8,34.7
					c6.9-0.7,13.8-1.6,20.7-2.3c-9.2,12.4-24.8,21.8-27.1,37c-0.7,4.1-1.1,8.5-1.8,12.6c-11-7.4-21.8-14.7-32.9-22.3
					c6.9-0.2,14-0.2,20.9-0.5c-10.8-6.7-21.6-13.6-32.4-20.2c7.6-6.7,15.2-13.6,22.8-20.2c-11.7,0.7-23.2,1.1-34.9,1.8
					c10.8-7.6,21.6-15.2,32.6-23c-20-6.4-40.2-12.9-60.2-19.3c16.8-1.4,33.6-2.8,50.1-3.9c-19.1-6.7-38.2-13.3-57.5-20
					c11,0,22.1,0,32.9,0c-18.4-15.4-36.8-30.6-55.2-46c11.5,0.7,23.2,1.4,34.7,2.1c-15.4-12.2-30.6-24.4-46-36.6
					c6-0.7,12.2-1.4,18.2-2.1c-10.8-10.1-21.4-20.2-32.2-30.3c10.8,3.9,21.4,7.6,32.2,11.5c-14.3-15.6-28.5-31.3-42.5-46.9
					c-5.7,10.1-11.5,20.5-17.2,30.6c4.6-2.3,9.2-4.6,13.8-6.9c-13.8,10.8-27.6,21.6-41.2,32.4c8.5-0.7,17.7,3.9,26,3.2
					c-7.8,6.7-15.6,13.3-23.5,20c5.3-0.9,10.6-1.6,15.9-2.5c-13.1,15.4-26,30.6-39.1,46c9.9-3,20-6.2,29.9-9.2
					c-13.8,11-27.4,22.1-41.2,33.1c13.8-4.8,27.6-9.4,41.2-14.3c-13.1,14.5-26.2,28.7-39.3,43.2c12.2-3.7,26.7,2.8,32.4,14
					c-8.7-7.6-17.2-15.4-26-23c1.6,14.5,3.2,28.7,5.1,43.2c-5.7-3.7-11.5-7.4-17.2-11c-21.8-15.4-43.7-30.8-65.5-46.2
					c9.7-1.1,19.1-2.3,28.7-3.4c-12.2-14.9-24.4-29.7-36.6-44.6c14.7,1.1,29.7,2.1,44.4,3.2c-18.9-14-37.5-27.8-56.3-41.8
					c14.5-3.7,28.7-7.1,43.2-10.8c-10.8-10.6-26.9-15.6-41.8-13.1c13.8-9.4,27.6-18.9,41.4-28.1c-13.1,0.7-26,1.4-39.1,1.8
					c6.9-10.6,13.6-21.2,20.5-32c-10.8,6-21.6,12.2-32.4,18.2c0.7-12,1.4-24.1,2.3-36.1c-1.4,18.4-14.3,35.4-31.5,41.8
					c4.6-13.1,9.2-26.2,13.6-39.5c-9.9,3-20,6.2-29.9,9.2c19.1-16.8,38.4-33.6,57.5-50.4c-9.9,1.6-20,3.2-29.9,4.8
					c7.6-10.8,15.2-21.8,23-32.6c-15.4,3-30.6,6.2-46,9.2c9.9-10.8,20-21.4,29.9-32.2c-12.9,1.6-25.8,3.2-38.6,5.1
					c7.8-8.3,15.4-16.8,23.2-25.1c-9.4-1.6-18.9-3.4-28.1-5.1c7.6-9.9,15.4-20,23-29.9c-11.5,0.7-23,1.6-34.5,2.3
					c9.2-12.2,18.4-24.6,27.6-36.8c-8.5,2.3-16.8,4.6-25.3,6.9c8.5-12.9,16.8-26,25.3-38.9c-6.9,1.6-13.8,3.2-20.7,4.8
					c7.6-12.4,15.2-24.8,22.8-37.2c-8,3.9-16.1,7.8-24.1,11.7c1.1-10.3,2.5-20.7,3.7-31c-5.3,10.1-10.6,20.5-15.9,30.6
					c-3.2-22.8-5.5-43.5-8.7-66.2c-4.1,19.1-8,38.4-12.2,57.5c-4.6-6.2-9.2-12.4-14-18.6c1.6,9.9,3,20,4.6,29.9
					c-6.2-5.3-12.2-10.8-18.4-16.1c5.3,9.9,10.8,19.8,16.1,29.7c-6.2,0.7-12.2,1.4-18.4,2.3c7.6,3.9,15.4,7.8,23,11.7
					c-8.5,7.6-16.8,15.4-25.3,23c6.9-1.6,13.8-3,20.7-4.6c-11.5,9.9-23,20-34.5,29.9c7.6-1.6,15.4-3,23-4.6
					c-11.5,10.8-23,21.4-34.5,32.2c4.6-4.4,13.6-1.6,14.9,4.6c-8,3.9-15.9,8-23.9,12c12.9-1.8,25.8-3.4,38.9-5.3
					c-9.2,5.3-18.4,10.8-27.6,16.1c6,0.9,11.7,2.1,17.7,3c-2.3,11.5-12.2,21.2-23.9,23c-11.5,1.8-24.1-4.4-29.7-14.5
					c0.9,7.6,1.8,15.4,3,23c-9.7-3.9-19.5-7.6-29.2-11.5c4.4,10.1,9,20,13.3,30.1c-4.8-2.8-9.9-5.3-14.7-8
					c15.6,15.9,31.3,31.7,46.9,47.4c-12.9-0.2-25.5-0.5-38.4-0.7c10.8,3,21.4,6.2,32.2,9.2c-15.4,7.6-30.6,15.4-46,23
					c10.6-0.2,20.9-0.5,31.5-0.7c-14.5,15.9-29.2,31.7-43.7,47.6c11.3-1.8,22.3-3.7,33.6-5.7c-15.4,17.7-30.8,35.4-46.2,53.1
					c12.2-0.9,24.4-1.6,36.6-2.5c-20.7,17.7-41.4,35.2-62.1,52.9c8.5,0,16.8,0,25.3,0c-13.8,17.7-27.6,35.4-41.4,53.1
					c9.2-3.7,18.4-7.6,27.6-11.3c-13.8,17.5-27.6,34.9-41.6,52.4c7.4-1.1,14.9-2.3,22.3-3.4c-12.4,16.8-24.8,33.3-37.2,50.1
					c3.9-1.4,7.8-2.8,11.7-4.1c-14,15.2-28.1,30.1-42.1,45.3c6.7-0.9,13.6-2.1,20.2-3c-9.9,14.5-20,29.2-29.9,43.7
					c6.2-2.3,12.4-4.4,18.9-6.7c-12,15.2-15.9,36.1-10.3,54.5c-6,25.3-5.3,52,2.1,77c3.4,45.3,9.2,91,25.5,133.4
					c26.2,68.3,79.6,125.8,146,157c66.2,31,144.6,35.4,214.1,12c259.4-88.1,549.5,57.5,822,86.9c117.5,12.6,235.4,25.5,353.4,19.3
					s236.8-32,338.7-92C2051.9,973.9,2064.1,976.2,2059.7,976.6z"/>
				<path class="st13" d="M1288.1,1451.2c-0.9,8-2.1,16.1-3,24.1c3.9-53.8,7.8-107.8,11.7-161.6c-19.3,22.3-38.6,44.8-58.2,67.1
					c12.9-40.5,25.8-80.7,38.9-121.2c-17.2,16.3-34.7,32.6-52,49.2c30.1-52.2,60.2-104.2,90.4-156.3c-21.8,8-43.7,16.1-65.5,23.9
					c29.2-42.8,58.4-85.5,87.6-128.3c-21.6,14.3-43.5,28.5-65.1,42.8c26.7-31.7,53.3-63.7,80-95.4c-17.2,7.4-34.7,14.5-52,21.8
					c21.4-29.2,42.8-58.2,64.1-87.4c-27.6,14.7-55,29.4-82.5,44.1c66.9-68.7,134-137.5,201-206.2c-34.5,16.3-68.7,32.4-103.2,48.7
					c35.9-38.2,71.7-76.3,107.6-114.3c-25.5,11.5-51,23-76.6,34.5c34.9-31.5,70.1-63,105.1-94.5c-25.8,10.1-51.5,20.5-77.3,30.6
					c31-24.4,62.1-48.7,92.9-73.1c-32.4-8.3-69.2,3.7-90.6,29.2c45.8-44.6,91.3-89.2,137-133.8c37.7,41.6,80.7,78.2,118.4,119.8
					c-25.5-10.3-51-20.9-76.8-31.3c15.4,22.5,30.8,44.8,46.4,67.4c-12.6-7.6-25.5-15.4-38.2-23c22.5,28.7,45.3,57.5,67.8,86.2
					c-22.5-9.4-44.8-19.1-67.4-28.5c36.3,36.6,72.7,73.1,109,109.7c-20.5-12.2-41.2-24.6-61.6-36.8c23.7,32.9,47.1,65.8,70.8,98.6
					c-24.8-15.2-49.7-30.3-74.5-45.5c48.3,56.3,96.8,112.9,145.1,169.2c-35.4-20.9-70.6-41.8-106-62.8c45.1,53.3,89.9,106.7,135,160
					c-35.4-19.1-70.6-38.4-106-57.5c29,34.7,57.7,69.4,86.7,104.2c-17.9-14.7-35.9-29.2-53.8-43.9c21.2,40.5,42.3,80.7,63.5,121.2
					c-24.8-19.3-49.7-38.9-74.5-58.2c19.5,46.2,39.1,92.4,58.4,138.6c-18.9-19.3-37.5-38.9-56.3-58.2c13.8,43.9,27.4,88.1,41.2,132
					c-9.9-16.3-20-32.9-29.9-49.2c1.6,38.9,3.4,77.9,5.1,116.8c-5.7-16.3-11.3-32.4-17-48.7c-10.8,38.2-21.4,76.3-32.2,114.5
					c-4.1-23-8.3-45.8-12.4-68.7c-11,16.8-22.3,33.3-33.3,50.1c-37.7-2.3-75.6-2.5-113.6-3
					C1479.4,1466.8,1380.8,1452.1,1288.1,1451.2z"/>
				<path class="st13" d="M-363.7,1455.6c-0.9,7.1-1.8,14.3-2.8,21.4c3.4-47.8,6.9-95.6,10.3-143.5c-17.2,19.8-34.5,39.8-51.5,59.5
					c11.5-35.9,23-71.7,34.5-107.6c-15.4,14.5-30.8,29-46,43.7c26.7-46.2,53.6-92.4,80.2-138.9c-19.3,7.1-38.9,14.3-58.2,21.4
					c26-37.9,51.7-75.9,77.7-114c-19.3,12.6-38.6,25.3-57.9,37.9c23.7-28.3,47.4-56.6,71-84.6c-15.4,6.4-30.8,12.9-46.2,19.3
					c19.1-25.8,37.9-51.7,57-77.5c-24.4,13.1-48.7,26.2-73.1,39.1c59.5-60.9,118.9-122.1,178.4-183c-30.6,14.5-60.9,28.7-91.5,43.2
					c31.7-33.8,63.7-67.6,95.4-101.4c-22.5,10.1-45.3,20.5-67.8,30.6c31-28.1,62.3-55.9,93.3-83.9c-22.8,9-45.8,18.2-68.5,27.1
					c27.6-21.6,55-43.2,82.5-64.8c-28.7-7.4-61.4,3.2-80.5,26c40.5-39.5,81.2-79.3,121.6-118.9c33.3,37,71.7,69.4,105.1,106.2
					c-22.8-9.2-45.3-18.6-68.1-27.8c13.8,20,27.4,39.8,41.2,59.8c-11.3-6.9-22.5-13.6-34-20.5c20,25.5,40.2,51,60.2,76.3
					c-20-8.5-39.8-16.8-59.8-25.3c32.2,32.4,64.4,64.8,96.8,97.3c-18.2-10.8-36.6-21.8-54.7-32.6c20.9,29.2,41.8,58.4,62.8,87.4
					C21.9,913.9-0.1,900.5-22.2,887c43,50.1,85.8,100.2,128.8,150.4c-31.3-18.6-62.8-37.2-94-55.9c40,47.4,79.8,94.7,119.8,142.1
					c-31.3-17-62.8-34-94-51c25.5,30.8,51.3,61.6,76.8,92.4c-15.9-13.1-32-26-47.8-39.1c18.9,35.9,37.5,71.7,56.3,107.4
					c-22.1-17.2-44.1-34.5-66.2-51.7c17.2,40.9,34.7,82.1,52,123c-16.6-17.2-33.3-34.5-49.9-51.7c12.2,39.1,24.4,78.2,36.3,117.3
					c-9-14.5-17.7-29.2-26.7-43.7c1.6,34.5,3,69.2,4.6,103.7c-5.1-14.5-10.1-28.7-14.9-43.2c-9.4,33.8-19.1,67.6-28.5,101.6
					c-3.7-20.2-7.4-40.7-11-60.9c-9.9,14.7-19.8,29.7-29.7,44.4c-33.6-2.1-67.1-2.3-100.9-2.5
					C-193.7,1469.3-281.6,1456.2-363.7,1455.6z"/>
				<path class="st13" d="M107.9,1474.4c-1.1,17-2.3,34.3-3.4,51.3c-4.1-52.9-8.3-105.8-12.4-158.4c-11.7,7.6-23.7,15.2-35.4,22.8
					c14.5-35.4,29-70.8,43.5-106.5c-14.7,9.2-29.7,18.4-44.4,27.6c12-29.7,24.1-59.1,36.1-88.7c-12.4,8.5-25.1,17.2-37.5,25.8
					c18.6-35.6,37.2-71.3,55.9-106.9c-11,6-22.1,11.7-33.3,17.7c17-30.3,34-60.7,51-91.3c-10.8,2.8-21.6,5.5-32.4,8.3
					c23-33.8,46-67.6,69-101.6c-22.3,9.9-44.6,20-66.9,29.9c27.8-40.9,55.9-81.9,83.7-122.8c-11,4.8-22.3,9.9-33.3,14.7
					c16.1-25.3,32.4-50.4,48.5-75.6c-16.8,6-33.8,12-50.6,17.9c21.2-25.8,42.3-51.5,63.2-77.3c-20.7,5.3-41.6,10.8-62.3,16.1
					c24.4-21.4,48.5-42.8,72.9-64.1c-20.7,5.5-41.6,10.8-62.3,16.3c32.4-37.7,64.8-75.4,97.3-113.1c-22.5,9.9-44.8,19.8-67.4,29.7
					c30.3-35.2,60.7-70.4,91.3-105.5c-26.2,14.5-52.7,29.2-78.9,43.7c29-32,57.7-63.9,86.7-96.1c-23.9,11.7-47.8,23.5-72,34.9
					c20.2-25.5,40.7-51,60.9-76.3c-18.6,9.4-37,18.9-55.6,28.3c21.2-27.1,42.3-54.3,63.7-81.4c-15.9,9.7-31.7,19.1-47.4,28.7
					c22.5-29.2,45.1-58.6,67.6-87.8c-19.5,11.3-38.9,22.5-58.4,33.8c44.4-34.5,78.2-81.9,96.6-134.7c22.1,35.2,42.5,77.9,64.6,113.4
					c-15.2-8.3-30.1-16.8-45.3-25.1c15.6,21.6,31.3,43,46.7,64.6c-14.5-4.1-29-8.3-43.5-12.6c25.5,23.7,50.8,47.4,76.3,71
					c-17-1.6-33.8-3.4-50.8-5.1c22.1,24.6,44.1,49.2,66,73.8c-20.7-2.1-41.6-4.1-62.3-6c18.2,21.6,36.3,43.5,54.5,65.1
					c-12.9,0-25.8-0.2-38.6-0.2c12,19.8,23.7,39.8,35.6,59.5c-11.5-2.1-22.8-4.4-34.3-6.4c17,29.4,34,59.1,50.8,88.5
					c-14.7-12.4-29.7-24.8-44.4-37.2c26.4,34.7,52.7,69.4,79.1,104.2c-17-9.2-33.8-18.6-50.8-27.8c26,26.7,52,53.1,77.9,79.8
					c-12.2,1.1-24.6,2.5-36.8,3.7c20.5,22.5,40.9,45.3,61.4,67.8c-24.1-10.1-48.1-20.2-72.2-30.3c24.8,30.6,49.7,61.4,74.7,92
					c-15.2-8.5-30.3-17-45.5-25.5c19.8,27.8,39.3,55.9,59.1,83.7c-20.2-9.4-40.7-18.6-60.9-28.1c21.4,31,42.5,62.3,63.9,93.3
					c-17.2-8.5-34.7-16.8-52-25.3c13.6,29.2,26.9,58.4,40.5,87.4c-19.1-9.7-38.2-19.3-57-29c18.2,32.2,36.1,64.4,54.3,96.6
					c-11.7-7.1-23.5-14.5-35.2-21.6c11,34.7,22.3,69.4,33.3,104.2c-8.5-11-17-22.1-25.3-33.1c4.8,28.3,9.4,56.6,14.3,84.8
					c-8.5-8.5-16.8-17-25.3-25.5c-0.7,24.4-1.4,48.7-2.1,73.3c-10.1-11-20.5-22.1-30.6-33.1c-0.7,24.6-1.6,49.2-2.3,73.6
					c-4.1-9.4-8.3-18.6-12.4-28.1c-7.8,24.6-15.4,49.2-23.2,73.8c-3-6.2-6.2-12.4-9.2-18.9C340.1,1523.4,203.6,1527.3,107.9,1474.4z
					"/>
				<path class="st13" d="M-1115,1409.1c-1.4,20.5-2.8,40.9-4.1,61.4c-5.1-63.2-9.9-126.2-14.9-189.5c-14,9-28.3,18.2-42.3,27.1
					c17.2-42.3,34.7-84.6,52-127.1c-17.7,11-35.4,21.8-53.1,32.9c14.5-35.4,28.7-70.8,43.2-106c-14.9,10.3-29.9,20.5-44.6,30.8
					c22.3-42.5,44.6-85.1,66.9-127.6c-13.3,7.1-26.4,14-39.8,21.2c20.2-36.3,40.7-72.7,60.9-109c-12.9,3.2-25.8,6.4-38.6,9.7
					c27.6-40.5,55-80.9,82.5-121.4c-26.7,12-53.3,23.9-80,35.9c33.3-49,66.7-97.7,100-146.7c-13.3,6-26.7,11.7-40,17.7
					c19.3-30.1,38.6-60.2,57.9-90.4c-20.2,7.1-40.2,14.3-60.5,21.4c25.3-30.8,50.4-61.6,75.6-92.4c-24.8,6.4-49.7,12.9-74.5,19.3
					c29-25.5,57.9-51.3,87.1-76.8c-24.8,6.4-49.7,12.9-74.5,19.3c38.6-45.1,77.5-90.1,116.1-135.2c-26.9,11.7-53.6,23.5-80.5,35.4
					c36.3-42.1,72.7-83.9,109-126c-31.5,17.5-62.8,34.9-94.3,52.2c34.5-38.2,69-76.6,103.5-114.7c-28.5,14-57.3,27.8-85.8,41.8
					c24.4-30.3,48.5-60.9,72.9-91.3c-22.1,11.3-44.4,22.5-66.4,33.8c25.3-32.4,50.6-64.8,75.9-97.3c-18.9,11.5-37.7,22.8-56.8,34.3
					c26.9-34.9,53.8-69.9,80.7-105.1c-23.2,13.6-46.4,26.9-69.7,40.5c52.9-41.2,93.6-97.7,115.4-161.2
					c26.4,42.1,50.8,93.1,77.3,135.2c-18.2-9.9-36.1-20-54.3-29.9c18.6,25.8,37.2,51.5,55.9,77c-17.2-5.1-34.5-9.9-51.7-14.9
					c30.3,28.3,60.9,56.6,91.3,85.1c-20.2-2.1-40.5-4.1-60.7-6.2c26.2,29.4,52.7,58.9,78.9,88.1c-24.8-2.5-49.7-4.8-74.5-7.4
					c21.8,26,43.5,52,65.3,77.7c-15.4,0-30.8-0.2-46.2-0.2c14.3,23.7,28.3,47.4,42.5,71c-13.6-2.5-27.1-5.1-40.9-7.6
					c20.2,35.2,40.5,70.6,60.9,105.8c-17.7-14.9-35.4-29.7-53.1-44.6c31.5,41.4,63,83,94.5,124.4c-20.2-11-40.5-22.3-60.7-33.3
					c31,31.7,62.1,63.7,93.1,95.4c-14.7,1.6-29.4,3-43.9,4.6c24.4,26.9,49,54,73.3,80.9c-28.7-12.2-57.5-24.1-86.2-36.3
					c29.7,36.6,59.5,73.1,89.2,109.9c-18.2-10.1-36.3-20.2-54.5-30.6c23.5,33.3,47.1,66.7,70.6,100c-24.4-11-48.5-22.3-72.9-33.3
					c25.5,37.2,50.8,74.5,76.3,111.5c-20.7-10.1-41.4-20.2-62.1-30.3c16.1,34.7,32.2,69.7,48.3,104.4c-22.8-11.5-45.5-23-68.3-34.5
					c21.6,38.4,43.2,77,64.6,115.4c-14-8.7-28.1-17.2-42.1-26c13.3,41.4,26.7,82.8,39.8,124.4c-10.1-13.1-20.2-26.4-30.3-39.5
					c5.7,33.8,11.3,67.6,17,101.4c-10.1-10.1-20.2-20.5-30.3-30.6c-0.7,29.2-1.6,58.4-2.3,87.6c-12.2-13.1-24.4-26.4-36.6-39.5
					c-0.9,29.4-1.8,58.6-2.8,88.1c-5.1-11.3-9.9-22.3-14.9-33.6c-9.2,29.4-18.4,58.9-27.8,88.3c-3.7-7.6-7.4-14.9-11-22.5
					C-837.7,1467.7-1000.8,1472.3-1115,1409.1z"/>
				<path class="st13" d="M-1390.5,1474.4c-1.1,17-2.3,34.3-3.4,51.3c-4.1-52.9-8.3-105.8-12.4-158.4c-11.7,7.6-23.7,15.2-35.4,22.8
					c14.5-35.4,29-70.8,43.5-106.5c-14.7,9.2-29.7,18.4-44.4,27.6c12-29.7,24.1-59.1,36.1-88.7c-12.4,8.5-25.1,17.2-37.5,25.8
					c18.6-35.6,37.2-71.3,55.9-106.9c-11,6-22.1,11.7-33.3,17.7c17-30.3,34-60.7,51-91.3c-10.8,2.8-21.6,5.5-32.4,8.3
					c23-33.8,46-67.6,69-101.6c-22.3,9.9-44.6,20-66.9,29.9c27.8-40.9,55.9-81.9,83.7-122.8c-11,4.8-22.3,9.9-33.3,14.7
					c16.1-25.3,32.4-50.4,48.5-75.6c-16.8,6-33.8,12-50.6,17.9c21.2-25.8,42.3-51.5,63.2-77.3c-20.7,5.3-41.6,10.8-62.3,16.1
					c24.4-21.4,48.5-42.8,72.9-64.1c-20.7,5.5-41.6,10.8-62.3,16.3c32.4-37.7,64.8-75.4,97.3-113.1c-22.5,9.9-44.8,19.8-67.4,29.7
					c30.3-35.2,60.7-70.4,91.3-105.5c-26.2,14.5-52.7,29.2-78.9,43.7c29-32,57.7-63.9,86.7-96.1c-23.9,11.7-47.8,23.5-72,34.9
					c20.2-25.5,40.7-51,60.9-76.3c-18.6,9.4-37,18.9-55.6,28.3c21.2-27.1,42.3-54.3,63.7-81.4c-15.9,9.7-31.7,19.1-47.4,28.7
					c22.5-29.2,45.1-58.6,67.6-87.8c-19.5,11.3-38.9,22.5-58.4,33.8c44.4-34.5,78.2-81.9,96.6-134.7c22.1,35.2,42.5,77.9,64.6,113.4
					c-15.2-8.3-30.1-16.8-45.3-25.1c15.6,21.6,31.3,43,46.7,64.6c-14.5-4.1-29-8.3-43.5-12.6c25.5,23.7,50.8,47.4,76.3,71
					c-17-1.6-33.8-3.4-50.8-5.1c22.1,24.6,44.1,49.2,66,73.8c-20.7-2.1-41.6-4.1-62.3-6c18.2,21.6,36.3,43.5,54.5,65.1
					c-12.9,0-25.8-0.2-38.6-0.2c12,19.8,23.7,39.8,35.6,59.5c-11.5-2.1-22.8-4.4-34.3-6.4c17,29.4,34,59.1,50.8,88.5
					c-14.7-12.4-29.7-24.8-44.4-37.2c26.4,34.7,52.7,69.4,79.1,104.2c-17-9.2-33.8-18.6-50.8-27.8c26.4,25.8,52.4,52.4,78.4,79.1
					c-12.2,1.1-24.6,2.5-36.8,3.7c20.5,22.5,40.9,45.3,61.4,67.8c-24.1-10.1-48.1-20.2-72.2-30.3c24.8,30.6,49.7,61.4,74.7,92
					c-15.2-8.5-30.3-17-45.5-25.5c19.8,27.8,39.3,55.9,59.1,83.7c-20.2-9.4-40.7-18.6-60.9-28.1c21.4,31,42.5,62.3,63.9,93.3
					c-17.2-8.5-34.7-16.8-52-25.3c13.6,29.2,26.9,58.4,40.5,87.4c-19.1-9.7-38.2-19.3-57-29c18.2,32.2,36.1,64.4,54.3,96.6
					c-11.7-7.1-23.5-14.5-35.2-21.6c11,34.7,22.3,69.4,33.3,104.2c-8.5-11-17-22.1-25.3-33.1c4.8,28.3,9.4,56.6,14.3,84.8
					c-8.5-8.5-16.8-17-25.3-25.5c-0.7,24.4-1.4,48.7-2.1,73.3c-10.1-11-20.5-22.1-30.6-33.1c-0.7,24.6-1.6,49.2-2.3,73.6
					c-4.1-9.4-8.3-18.6-12.4-28.1c-7.8,24.6-15.4,49.2-23.2,73.8c-3-6.2-6.2-12.4-9.2-18.9
					C-1158.3,1523.4-1294.6,1527.3-1390.5,1474.4z"/>
				<path class="st13" d="M304.7,1448c0.2,8.3,0.5,16.6,0.5,24.8c-20.2-72-16.6-150.1,10.1-219.8c-17.2,16.8-34.3,33.6-51.5,50.4
					c16.6-44.6,33.1-89.4,49.4-134c-18.6,17.9-37.5,35.9-56.1,53.6c18.9-35.6,37.7-71.5,56.6-107.1c-14.3,9.4-28.3,18.9-42.5,28.5
					c33.6-48.5,67.4-97,100.9-145.3c-20.9,12.2-41.8,24.6-62.5,36.8c36.8-47.6,73.3-95.2,110.1-142.8c-21.6,8-43.2,16.3-65.1,24.4
					c39.3-35.4,78.6-70.8,118.2-106.2c-14,6-28.3,12.2-42.3,18.2c36.8-39.3,73.6-78.9,110.4-118.2c-28.7,18.9-57.5,37.5-86.2,56.3
					c33.3-37.9,66.4-76.1,99.8-114c-27.4,13.1-54.7,26.2-82.1,39.3c28.5-35.9,56.8-72,85.3-107.8c-24.8,9.7-49.9,19.1-74.7,28.7
					c33.1-33.6,66.2-67.4,99.3-100.9c-36.3,16.1-72.4,32.4-108.8,48.5c58.9-56.1,117.5-112.4,176.3-168.5
					c62.5,49.9,131.7,109.9,194.3,160c-37-11.7-74-23.7-111.1-35.4c26,25.3,52.2,50.6,78.2,75.6c-24.1-10.3-48.3-20.7-72.2-31
					c31.3,30.3,62.8,60.9,94,91.3c-28.7-9.2-57.5-18.4-86.2-27.8c39.1,32.4,78.2,64.6,117.5,97c-31-3.4-62.1-6.9-93.1-10.3
					c40.9,33.1,81.9,66.2,122.5,99.3c-36.3-4.8-72.9-9.7-109.2-14.5c40.9,24.6,82.1,49.4,123,74c-36.1-5.3-72.2-10.6-108.3-15.6
					c42.3,28.7,84.6,57.5,126.7,86.2c-17-3-34-6-51.3-9.2c32.4,34.9,64.6,69.9,97,104.8c-30.3-13.6-60.7-27.4-91-40.9
					c39.3,49.9,78.6,100,117.9,149.9c-26.4-13.8-53.1-27.8-79.6-41.6c33.6,58.2,67.1,116.1,100.7,174.3
					c-5.1-11.7-22.5-15.9-32.4-7.4c4.1,70.1,3,152.4-53.3,194.1c-38.4,28.3-90.1,27.4-137.7,25.5c-87.8-3.7-175.7-7.4-263.5-11.3
					C456,1475.6,380.8,1455.1,304.7,1448z"/>
				<path class="st13" d="M-599.1,1453.7c-1.4,6.2-2.8,12.4-3.9,18.9c-7.1-43.2-14.3-86.7-21.4-129.9c-5.7,9.7-11.3,19.3-17,29
					c3.7-36.1,7.6-72.2,11.3-108.3c-12.4,18.9-24.8,37.5-37.2,56.3c12.2-48.3,24.4-96.6,36.3-144.8c-13.3,21.4-26.4,43-39.8,64.4
					c16.8-40.9,33.3-81.6,50.1-122.5c-16.6,10.3-33.1,20.7-49.7,30.8c19.5-34.5,38.9-68.7,58.4-103.2c-11.3,6.9-22.8,13.6-34,20.5
					c17.7-29.9,35.6-60,53.3-89.9c-24.1,16.8-48.3,33.3-72.4,50.1c26.9-33.1,54-66.4,80.9-99.6c-14.5,9.4-29.2,18.6-43.7,28.1
					c32.6-41.2,65.1-82.1,97.7-123.2c-26.7,14.9-53.3,30.1-80,45.1c24.4-33.3,48.7-66.7,72.9-100c-20.2,11.7-40.7,23.5-60.9,35.2
					c36.1-37.9,72-75.6,108.1-113.6c-19.3,6.2-38.6,12.6-58.2,18.9c26.9-28.1,53.8-56.3,80.7-84.4c-21.6,12-43.2,23.9-64.6,35.9
					c26.4-33.6,52.9-66.9,79.1-100.5c-29.9,16.6-59.8,33.3-89.7,49.9c27.6-35.9,55.4-71.5,83-107.4c-20.2,16.1-40.2,32.2-60.5,48.3
					c28.3-32.6,56.6-65.5,84.8-98.2c-26.4,18.6-53.1,37.2-79.6,55.6c29-32.2,57.9-64.4,86.9-96.3c-26.4,18.6-52.9,37.5-79.3,56.1
					c35.4-41.4,71-82.8,106.5-124.2c-23.7,14.3-47.4,28.7-71,43c27.4-32.2,54.7-64.1,81.9-96.3c-23,14.9-46,30.1-69.2,45.1
					c40.5-48.7,80.9-97.7,121.4-146.5c41.2,39.5,81.6,83.9,122.8,123.7c-26-13.8-51.7-27.6-77.7-41.6c14.9,20.9,29.9,41.8,44.6,62.8
					c-18.9-10.1-37.9-20.2-56.8-30.1c18.6,31,37.2,61.8,55.6,92.9c-20.5-13.1-40.9-26.4-61.2-39.5c22.1,32.6,44.1,65.3,66.4,98.2
					c-15.9-9.7-32-19.3-47.8-29.2c29,35.6,57.9,71.5,87.1,107.1c-23.9-10.6-47.6-21.2-71.5-31.7c29.4,35.2,58.9,70.1,88.3,105.3
					c-21.6-13.1-43-26.2-64.6-39.3c30.8,41.2,61.4,82.1,92.2,123.2c-36.1-20.5-72.2-41.2-108.3-61.6
					c36.8,41.4,73.6,82.8,110.4,124.2c-19.1-6.9-38.2-13.8-57.3-20.9c42.5,35.2,75,82.5,92.9,134.7c-23.2-14.9-46.2-29.9-69.4-44.8
					c27.4,43.7,54.7,87.1,82.3,130.8c-20.2-14.7-40.7-29.2-60.9-43.9c18.9,48.1,37.7,96.3,56.6,144.4
					c-20.7-18.4-41.4-36.8-62.3-55.2c15.9,46,31.7,92,47.6,138c-14.9-16.8-30.1-33.6-45.1-50.4c11,46,21.8,91.7,32.9,137.7
					c-11-16.6-22.1-33.3-33.1-49.9c4.8,37,9.4,74.3,14.3,111.3c-7.4-23-14.5-45.8-21.8-68.7c-2.1,41.6-4.1,83.2-6.4,124.8
					c-3.2-15.9-6.2-31.7-9.4-47.6c-7.4,29.4-14.7,58.6-22.1,88.1c-5.1-14.3-10.3-28.5-15.4-42.8c-14.7,32-29.4,63.9-44.1,95.9
					c-0.2-14.5-0.7-29-0.9-43.5c-4.4,33.8-34.7,59.5-67.4,69c-32.6,9.4-67.6,6.2-101.4,2.5C-496.5,1464.5-550.8,1458.5-599.1,1453.7
					z"/>
				<path class="st14" d="M-901.9,1481.1c-0.9-12.2-1.8-24.6,2.1-36.1c3.9-11.5,14.3-21.8,26.4-21.8s23.5,14,17.7,24.8
					c1.8-35.6,3.4-71.5,5.3-107.1c12.9,14,26,27.8,38.9,41.8c-25.5-33.1-37.7-76.1-33.6-117.5c20.9,12.4,41.6,24.8,62.5,37.2
					c-18.4-31.3-36.8-62.8-55.4-94c14.7,8.7,29.4,17.5,44.4,26.2c-23-45.3-46-90.6-69-135.9c15.9,6.2,32,12.6,47.8,18.9
					c-24.8-40.9-49.9-81.6-74.7-122.5c18.4,8.3,37,16.8,55.4,25.1c-22.8-37.5-45.5-75.2-68.3-112.7c17.9,6.2,35.9,12.4,53.8,18.4
					c-21.4-30.6-42.5-61.2-63.9-91.7c14.9,7.4,29.9,14.7,44.8,22.3c-20-32.9-39.8-66-59.8-98.9c17,8.3,33.8,16.8,50.8,25.1
					c-23-36.1-46-72-69-108.1c18.9,9.4,37.7,18.6,56.8,28.1c-16.1-28.3-32.2-56.8-48.1-85.1c12.4,6,24.8,12.2,37.2,18.2
					c-16.8-27.8-33.6-55.4-50.4-83.2c9.2,3.9,18.4,7.6,27.6,11.5c-11.5-31.3-23-62.8-34.5-94c9.9,8.5,20,16.8,29.9,25.3
					c-10.1-29-20-58.2-30.1-87.1c8.5,8.5,16.8,16.8,25.3,25.3c-6.9-20.7-13.8-41.4-20.7-62.1c9.7,13.1,19.3,26.2,29,39.3
					c-12.2-41.4-26-83-38.2-124.4c-21.8,40-43.9,80-65.8,120c10.3-7.8,20.9-15.6,31.3-23.5c-9.9,16.8-20,33.8-29.9,50.6
					c10.8-7.6,21.4-15.4,32.2-23c-16.1,25.3-32.2,50.6-48.3,75.9c9.9-4.8,19.8-9.7,29.7-14.5c-22.8,29.9-45.8,59.8-68.5,89.7
					c20.2-12.9,40.5-25.8,60.7-38.6c-20.2,28.3-40.7,56.6-60.9,84.8c16.8-7.8,33.8-15.6,50.6-23.5c-20.7,34-41.4,67.8-62.1,101.9
					c14.3-10.6,28.5-21.2,42.8-31.7c-25.3,38.9-50.1,77.7-75,116.6c14.5-10.3,29-20.5,43.5-30.8c-24.1,34.9-48.5,69.9-72.9,104.6
					c17.9-12.6,36.1-25.3,54-38.2c-29.7,38.9-59.3,77.5-89,116.1c14.9-6.7,30.1-13.1,45.1-19.8c-32.4,40.5-64.6,80.9-97,121.4
					c22.8-14,45.3-28.3,68.1-42.3c-23.2,37.7-46.7,75.2-69.9,112.9c6.2,1.1,12.9,5.7,19.1,6.9c-12.2,30.8-24.1,61.8-36.3,92.7
					c4.8-15.9,22.1-26.7,38.4-24.6c-10.6,37.9-21.2,76.1-31.7,114c10.8-4.6,21.6-9.2,32.4-13.8c-4.1,33.6-8.5,67.4-12.6,100.9
					c11.3,0.7,22.3,1.6,33.6,2.3c-23,30.8-13.6,80.2,18.9,100.5c21.8,13.6,48.7,14.3,74.5,14.3
					C-1040.5,1488.7-968.6,1480.6-901.9,1481.1z"/>
				<path class="st14" d="M-863.3,1479.2c-0.9,15.4-2.1,31-3,46.4c-3.7-47.8-7.6-95.4-11.3-143.2c-10.6,6.9-21.4,13.8-32,20.5
					c13.1-32,26.2-64.1,39.3-96.1c-13.3,8.3-26.9,16.6-40.2,24.8c10.8-26.7,21.8-53.6,32.6-80.2c-11.3,7.8-22.5,15.4-33.8,23.2
					c16.8-32.2,33.8-64.4,50.6-96.6c-10.1,5.3-20,10.6-30.1,16.1c15.4-27.4,30.8-55,46-82.3c-9.7,2.5-19.5,4.8-29.2,7.4
					c20.7-30.6,41.6-61.2,62.3-91.7c-20.2,9-40.2,17.9-60.5,26.9c25.3-37,50.4-74,75.6-110.8c-10.1,4.4-20.2,9-30.1,13.3
					c14.7-22.8,29.2-45.5,43.9-68.5c-15.2,5.5-30.6,10.8-45.8,16.3c19.1-23.2,38.2-46.7,57.3-69.9c-18.9,4.8-37.7,9.7-56.3,14.7
					c22.1-19.3,43.9-38.6,66-58.2c-18.9,4.8-37.5,9.9-56.3,14.7c29.2-34,58.6-68.3,87.8-102.3c-20.2,9-40.5,17.7-60.7,26.7
					c27.6-31.7,55-63.5,82.5-95.4c-23.7,13.1-47.6,26.4-71.3,39.5c26.2-29,52.2-57.9,78.4-86.7c-21.6,10.6-43.2,21.2-65.1,31.7
					c18.4-23,36.8-46,55.2-69c-16.8,8.5-33.6,17-50.4,25.5c19.1-24.6,38.4-49,57.5-73.6c-14.3,8.7-28.5,17.2-43,26
					c20.5-26.4,40.7-52.9,61.2-79.6c-17.5,10.1-35.2,20.5-52.7,30.6c40-31,70.8-74,87.4-121.9c20,31.7,38.4,70.6,58.4,102.3
					c-13.6-7.6-27.4-15.2-40.9-22.8c14,19.5,28.3,38.9,42.3,58.4c-13.1-3.7-26.2-7.6-39.3-11.3c23,21.4,46,42.8,69,64.4
					c-15.4-1.6-30.6-3-46-4.6c20,22.3,39.8,44.4,59.8,66.7c-18.9-1.8-37.7-3.7-56.3-5.5c16.6,19.5,32.9,39.3,49.4,58.9
					c-11.7,0-23.2-0.2-34.9-0.2c10.8,17.9,21.4,35.9,32.2,53.8c-10.3-1.8-20.7-3.9-30.8-5.7c15.4,26.7,30.6,53.3,46,80
					c-13.3-11.3-26.9-22.5-40.2-33.8c23.9,31.3,47.6,62.8,71.5,94c-15.4-8.5-30.6-16.8-46-25.3c23.5,24.1,46.9,48.1,70.4,72.2
					c-11,1.1-22.3,2.3-33.3,3.4c18.4,20.5,37,40.9,55.4,61.4c-21.6-9.2-43.5-18.2-65.1-27.4c22.5,27.6,45.1,55.4,67.4,83
					c-13.8-7.6-27.6-15.4-41.2-23c17.7,25.3,35.6,50.4,53.3,75.6c-18.4-8.5-36.8-16.8-55.2-25.3c19.3,28.1,38.4,56.3,57.7,84.4
					c-15.6-7.6-31.3-15.2-46.9-23c12.2,26.4,24.4,52.7,36.6,79.1c-17.2-8.7-34.5-17.5-51.7-26.2c16.3,29.2,32.6,58.2,49,87.4
					c-10.6-6.4-21.2-13.1-31.7-19.5c10.1,31.3,20,62.8,30.1,94c-7.6-9.9-15.4-20-23-29.9c4.4,25.5,8.5,51,12.9,76.8
					c-7.6-7.6-15.2-15.4-23-23c-0.7,22.1-1.1,44.1-1.8,66.2c-9.2-9.9-18.4-20-27.6-29.9c-0.7,22.3-1.4,44.4-2.1,66.7
					c-3.7-8.5-7.6-17-11.3-25.3c-6.9,22.3-14,44.6-20.9,66.9c-2.8-5.7-5.5-11.3-8.3-17C-653.4,1523.6-776.8,1527.1-863.3,1479.2z"/>
				<path class="st14" d="M-471,1516.5c-2.1,6.2-4.4,12.2-6.4,18.4c-7.8-20.7-15.6-41.6-23.2-62.3c-3.7,1.4-7.1,3-10.8,4.4
					c-4.6-21.4-9.2-43-13.8-64.4c-4.8,9.7-9.7,19.5-14.5,29.2c-18.6-32.9-22.5-73.8-10.1-109.7c-9.4,12.9-18.6,25.5-28.1,38.4
					c8.7-37.5,17.7-75,26.4-112.4c-12,9.2-23.9,18.6-35.9,27.8c12.2-29.9,24.6-59.8,36.8-89.7c-15.4,9.2-30.6,18.4-46,27.6
					c17.5-30.3,34.9-60.5,52.4-90.8c-18.4,7.8-36.6,15.9-55,23.7c21.4-35.2,43-70.6,64.4-105.8c-14.9,6.4-29.9,12.9-44.8,19.1
					c27.6-38.4,55.4-77,83-115.4c-19.1,8.7-38.4,17.5-57.5,26c25.5-27.8,51.3-55.9,76.8-83.7c-10.6,1.6-21.4,3.4-32,5.1
					c18.2-23.2,36.3-46.7,54.7-69.9c-12.2,7.6-24.6,15.4-36.8,23c16.3-20.5,32.4-40.9,48.7-61.4c-13.6,7.8-27.1,15.6-40.7,23.7
					c22.3-23.2,44.4-46.4,66.7-69.9c-17.2,7.4-34.3,14.7-51.5,22.3c23.2-25.8,46.2-51.5,69.4-77.3c16.1,26.9,34.5,51.3,50.6,78.2
					c-12.2-7.6-24.6-15.4-36.8-23c6.9,15.4,13.8,30.6,20.7,46c-6.4-6.2-13.1-12.6-19.5-18.9c9.2,23.7,18.4,47.6,27.6,71.3
					c-9.4-6.9-18.6-13.8-28.1-20.7c17.7,30.6,35.4,61.2,52.9,92c-14-8.3-28.1-16.6-42.3-24.8c14.5,23.7,29.2,47.6,43.7,71.3
					c-9.9-6.9-20-13.8-29.9-20.7c15.2,20.9,30.6,41.8,45.8,62.8c-12.6-3.7-25.3-7.1-37.9-10.8c12.6,23.5,25.3,46.7,38.2,70.1
					c-13.1-12.2-26.2-24.4-39.3-36.6c17.2,33.6,34.5,67.1,51.7,100.5c-12.6-11.3-25.1-22.8-37.7-34c14.7,31.3,29.2,62.8,43.9,94
					c-7.6-9.9-15.2-20-23-29.9c6,23.9,12.2,47.6,18.2,71.5c-6.2-10.8-12.2-21.4-18.4-32.2c2.3,23.7,4.6,47.6,6.9,71.3
					c-4.6-8.5-9.2-16.8-13.8-25.3c0.7,32.2,1.6,64.4,2.3,96.6c-3-12.2-6.2-24.6-9.2-36.8c-2.1,35.9-4.4,72-6.4,107.8
					c-6.2-12.2-12.2-24.6-18.4-36.8c-4.8,23-9.4,46.2-14.3,69.2c-0.9-5.1-2.1-10.3-3-15.4c-9.7,19.3-19.1,38.9-28.7,58.2
					c-0.9-7.4-1.8-14.7-3-22.1c-6.9,12.2-13.8,24.6-20.7,36.8c-4.1-10.1-8.3-20.2-12.4-30.3c-6.2,13.8-12.2,27.4-18.4,41.2
					c-0.5-6.7-0.7-13.3-1.1-20C-463,1502.2-467.6,1506.8-471,1516.5z"/>
				<path class="st14" d="M162.2,1458.5c0.7,4.6,1.6,9.2,2.3,13.8c6.9-27.6,13.8-55.2,20.7-82.8c3.4,10.6,7.1,21.4,10.6,32
					c4.4-26.9,8.7-53.8,13.3-80.5c7.6,11.5,15.4,23.2,23,34.7c0-29.9,0-60,0-89.9c5.1,12.2,10.1,24.6,15.4,36.8
					c-1.6-37.5-3.2-75.2-4.8-112.7c8.7,8.3,17.7,16.6,26.4,24.8c-8.5-34.9-16.8-69.7-25.3-104.6c12.4,12.9,24.6,26,37,38.9
					c-14-42.1-28.3-84.4-42.3-126.5c14.9,12.6,29.9,25.1,44.8,37.7c-17.2-40.5-34.3-80.9-51.5-121.4c15.4,13.3,30.6,26.7,46,40.2
					c-18.2-35.9-36.6-72-54.7-107.8c16.1,9.2,32,18.6,48.1,27.8c-19.3-38.9-38.4-77.7-57.7-116.6c13.6,10.8,26.9,21.8,40.5,32.6
					c-23.7-39.3-47.4-78.4-70.8-117.7c22.5,15.2,44.8,30.3,67.4,45.5c-25.1-38.4-50.1-76.8-75.2-115.2
					c16.6,13.1,33.3,26.2,49.9,39.3c-23-32.2-46-64.4-69.2-96.3c19.8,10.1,39.3,20.2,59.1,30.3c-19.8-34.7-39.5-69.2-59.5-103.9
					c17.2,12.6,34.3,25.5,51.5,38.2c-20.2-34.9-40.2-69.9-60.5-105.1c15.2,11.5,30.3,23.2,45.8,34.7c-19.3-29-38.6-57.9-57.7-86.9
					c19.8,9.2,39.5,18.6,59.3,27.8c-19.5-29.7-39.1-59.3-58.6-89c15.9,7.4,31.7,14.7,47.6,22.1c-23-29.9-46-59.8-69-89.7
					c16.6,10.1,33.3,20.2,49.9,30.3c-18.2-30.3-36.1-60.7-54.3-91c8.7,9,17.5,17.9,26.2,26.9c-7.6-17-15.2-33.8-22.8-50.8
					c10.6,10.1,21.2,20.2,31.5,30.3C127.7,188,107,159.5,90,131.9c-23.9,37-47.6,74-71.5,111.1c14.3-11,28.3-21.8,42.5-32.9
					c-18.4,25.3-36.8,50.6-55.2,75.9c13.6-5.7,27.1-11.5,40.5-17.2c-20.2,26-40.2,51.7-60.5,77.7c15.9-10.1,31.7-20.5,47.4-30.6
					c-21.4,26.9-43,53.6-64.4,80.5c20-9.2,39.8-18.4,59.8-27.6c-21.4,26-43,52.2-64.4,78.2c17.7-8.5,35.2-16.8,52.9-25.3
					c-22.3,28.3-44.4,56.8-66.7,85.1c19.3-9.2,38.4-18.4,57.7-27.4c-21.4,29.2-43,58.2-64.4,87.4c15.4-9.9,30.6-20,46-29.9
					c-23.9,38.2-47.6,76.6-71.5,114.7c23.9-12.4,47.6-24.8,71.5-37.2c-20.2,33.3-40.7,66.9-60.9,100.2c16.3-8.7,32.9-17.7,49.2-26.4
					c-24.6,39.1-49,78.2-73.6,117.3c12.9-5.3,25.8-10.8,38.9-16.1c-20.9,32.4-41.8,64.6-62.8,97c19.5-9,39.1-17.7,58.6-26.7
					c-21.2,31.5-42.3,63-63.5,94.3c15.6-7.1,31.5-14.3,47.1-21.4c-28.7,45.1-57.3,90.4-86,135.4c21.2-14.9,42.3-30.1,63.5-45.1
					c-20.7,40.5-41.6,80.9-62.3,121.4c16.3-17.9,32.4-35.6,48.7-53.6c-18.4,49.9-36.8,99.6-55.2,149.4c14-15.2,27.8-30.3,41.8-45.8
					c-8.5,37.7-16.8,75.4-25.3,113.1c8.5-9,16.8-18.2,25.3-27.1c-5.7,42.8-11.3,85.5-17,128.3c6.7-16.1,13.1-32.2,19.8-48.3
					c2.3,29.2,4.6,58.4,6.9,87.6c1.4-4.6,3-9.2,4.4-14C-25.2,1453.3,73,1464.5,162.2,1458.5z"/>
				<path class="st13" d="M1332.2,1460.2c0.7,4.1,1.4,8,2.1,12.2c6-24.1,12.2-48.3,18.2-72.7c3.2,9.4,6.2,18.6,9.4,28.1
					c3.9-23.5,7.8-47.1,11.7-70.6c6.7,10.1,13.6,20.2,20.2,30.3c0-26.2,0-52.4,0-78.9c4.4,10.8,9,21.6,13.3,32.4
					c-1.4-32.9-2.8-65.8-4.1-98.6c7.8,7.4,15.4,14.5,23.2,21.8c-7.4-30.6-14.7-61.2-22.1-91.7c10.8,11.3,21.6,22.8,32.4,34
					c-12.4-37-24.8-73.8-37-110.8c13.1,11,26.2,22.1,39.3,33.1c-14.9-35.4-30.1-71-45.1-106.5c13.3,11.7,26.9,23.5,40.2,35.2
					c-16.1-31.5-32-63-48.1-94.5c14,8,28.1,16.3,42.1,24.4c-16.8-34-33.8-68.1-50.6-102.1c11.7,9.7,23.7,19.1,35.4,28.7
					c-20.7-34.5-41.4-68.7-62.1-103.2c19.5,13.3,39.3,26.7,58.9,40c-21.8-33.8-43.9-67.4-65.8-101.2c14.5,11.5,29.2,23,43.7,34.5
					c-20.2-28.3-40.5-56.3-60.7-84.6c17.2,9,34.5,17.7,51.7,26.7c-17.5-30.3-34.7-60.7-52.2-91c14.9,11,30.1,22.3,45.1,33.3
					c-17.7-30.6-35.2-61.4-52.9-92c13.3,10.1,26.7,20.2,40,30.3c-16.8-25.3-33.8-50.8-50.6-76.1c17.2,8,34.7,16.3,52,24.4
					c-17-26-34.3-52-51.3-77.9c13.8,6.4,27.8,12.9,41.6,19.3c-20.2-26.2-40.2-52.4-60.5-78.6c14.5,8.7,29.2,17.7,43.7,26.4
					c-15.9-26.7-31.7-53.3-47.4-79.8c7.6,7.8,15.4,15.6,23,23.7c-6.7-14.9-13.3-29.7-20-44.6c9.2,9,18.4,17.7,27.6,26.7
					c-14.9-24.1-33.1-49.2-48.1-73.1c-20.9,32.4-41.8,64.8-62.5,97.3c12.4-9.7,24.8-19.3,37.2-29c-16.1,22.1-32.2,44.4-48.3,66.4
					c12-5.1,23.7-10.1,35.6-15.2c-17.7,22.8-35.2,45.3-52.9,68.1c13.8-9,27.8-17.9,41.6-26.7c-18.9,23.5-37.7,47.1-56.3,70.6
					c17.5-8,34.9-16.1,52.4-24.1c-18.9,22.8-37.7,45.8-56.3,68.5c15.4-7.4,30.8-14.7,46.4-22.1c-19.5,24.8-38.9,49.7-58.4,74.5
					c16.8-8,33.8-16.1,50.6-24.1c-18.9,25.5-37.7,51-56.6,76.6c13.3-8.7,26.9-17.5,40.2-26.2c-20.9,33.6-41.8,66.9-62.5,100.5
					c20.9-10.8,41.8-21.6,62.5-32.6c-17.7,29.4-35.6,58.6-53.3,88.1c14.5-7.8,28.7-15.4,43.2-23.2c-21.4,34.3-43,68.5-64.4,102.8
					c11.3-4.8,22.8-9.4,34-14.3c-18.4,28.3-36.6,56.6-55,85.1c17.2-7.8,34.3-15.6,51.5-23.5c-18.6,27.6-37,55.2-55.6,82.8
					c13.8-6.2,27.6-12.6,41.4-18.9c-25.1,39.5-50.1,79.1-75.4,118.6c18.6-13.1,37-26.2,55.6-39.5c-18.2,35.4-36.6,70.8-54.7,106.5
					c14.3-15.6,28.5-31.3,42.8-46.9c-16.1,43.7-32.2,87.4-48.3,130.8c12.2-13.3,24.4-26.7,36.8-40c-7.4,33.1-14.7,66-22.3,99.1
					c7.4-8,14.7-15.9,22.1-23.9c-5.1,37.5-9.9,75-14.9,112.4c5.7-14,11.5-28.3,17.2-42.3c2.1,25.5,3.9,51.3,6,76.8
					c1.4-4.1,2.5-8,3.9-12.2C1167.8,1455.6,1254.1,1465.4,1332.2,1460.2z"/>
				<path class="st14" d="M357.6,1460.8c-0.7,6-1.6,12-2.3,18.2c3-40.2,5.7-80.5,8.7-120.7c-14.5,16.8-29,33.3-43.5,50.1
					c9.7-30.1,19.3-60.2,29-90.4c-12.9,12.2-25.8,24.4-38.9,36.8c22.5-38.9,45.1-77.9,67.6-116.8c-16.3,6-32.6,12-49,17.9
					c21.8-32,43.7-63.9,65.3-95.9c-16.3,10.6-32.4,21.4-48.7,32c20-23.7,39.8-47.6,59.8-71.3c-12.9,5.5-26,10.8-38.9,16.3
					c15.9-21.8,32-43.5,47.8-65.3c-20.5,11-41.2,22.1-61.6,32.9c50.1-51.3,100-102.5,150.1-154c-25.8,12.2-51.3,24.4-77,36.3
					c26.7-28.5,53.6-57,80.2-85.3c-19.1,8.5-38.2,17.2-57.3,25.8c26.2-23.5,52.4-47.1,78.4-70.6c-19.3,7.6-38.4,15.2-57.7,22.8
					c23.2-18.2,46.2-36.3,69.4-54.7c-24.1-6.2-51.7,2.8-67.6,21.8c34-33.3,68.3-66.7,102.3-100c28.1,31,60.2,58.4,88.5,89.4
					c-19.1-7.8-38.2-15.6-57.3-23.5c11.5,16.8,23,33.6,34.7,50.4c-9.4-5.7-19.1-11.5-28.5-17.2c16.8,21.4,33.8,43,50.6,64.4
					c-16.8-7.1-33.6-14.3-50.4-21.4c27.1,27.4,54.3,54.5,81.4,81.9c-15.4-9.2-30.8-18.4-46-27.4c17.7,24.6,35.2,49,52.9,73.6
					c-18.6-11.3-37.2-22.8-55.6-34c36.1,42.1,72.2,84.4,108.3,126.5c-26.4-15.6-52.7-31.3-79.1-46.9
					c33.6,39.8,67.1,79.6,100.7,119.6c-26.4-14.3-52.7-28.5-79.1-43c21.6,26,43,52,64.6,77.7c-13.3-11-26.9-21.8-40.2-32.9
					c15.9,30.1,31.5,60.2,47.4,90.4c-18.6-14.5-37-29-55.6-43.5c14.5,34.5,29.2,69,43.7,103.5c-14-14.5-28.1-29-42.1-43.5
					c10.1,32.9,20.5,65.8,30.6,98.6c-7.4-12.2-14.9-24.6-22.3-36.8c1.4,29.2,2.5,58.2,3.9,87.4c-4.1-12.2-8.5-24.1-12.6-36.3
					c-8,28.5-16.1,57-24.1,85.5c-3.2-17-6.2-34.3-9.4-51.3c-8.3,12.4-16.6,24.8-24.8,37.5c-28.3-1.6-56.6-1.8-84.8-2.3
					C500.6,1472.3,426.8,1461.5,357.6,1460.8z"/>
				<path class="st14" d="M838.1,1456.2c-1.1,5.5-2.3,10.8-3.4,16.3c-6.2-37.5-12.4-75.2-18.6-112.7c-4.8,8.3-9.9,16.8-14.7,25.1
					c3.2-31.3,6.7-62.5,9.9-93.8c-10.8,16.3-21.6,32.4-32.2,48.7c10.6-41.8,20.9-83.7,31.5-125.5c-11.5,18.6-23,37.2-34.5,55.9
					c14.5-35.4,29-70.8,43.5-106.2c-14.3,9-28.7,17.9-43,26.7c16.8-29.9,33.8-59.5,50.6-89.4c-9.9,6-19.5,11.7-29.4,17.7
					c15.4-26,30.8-52,46.2-77.9c-20.9,14.5-41.8,29-62.8,43.5c23.5-28.7,46.9-57.5,70.1-86.5c-12.6,8-25.3,16.3-37.9,24.4
					c28.3-35.6,56.6-71.3,84.6-106.9c-23.2,13.1-46.2,26-69.4,39.1c21.2-29,42.1-57.7,63.2-86.7c-17.7,10.1-35.2,20.2-52.9,30.3
					c31.3-32.9,62.5-65.5,93.6-98.4c-16.8,5.5-33.6,10.8-50.4,16.3c23.5-24.4,46.7-48.7,70.1-73.1c-18.6,10.3-37.5,20.7-56.1,31.3
					c22.8-29,45.8-57.9,68.5-86.9c-26,14.5-51.7,28.7-77.7,43.2c23.9-31,48.1-62.1,72-93.1c-17.5,14-34.9,27.8-52.4,41.8
					c24.6-28.3,49-56.8,73.6-85.1c-23,16.1-46,32.2-69,48.3c25.1-27.8,50.1-55.6,75.4-83.7c-23,16.1-45.8,32.4-68.7,48.5
					c30.8-35.9,61.6-71.7,92.2-107.6c-20.5,12.4-40.9,24.8-61.6,37.2c23.7-27.8,47.4-55.6,71-83.5c-20,13.1-40,26-60,39.1
					c35.2-42.3,70.1-84.6,105.3-126.9c35.6,34.3,70.6,72.9,106.5,107.1c-22.5-12-44.8-23.9-67.4-36.1c12.9,18.2,25.8,36.3,38.6,54.3
					c-16.3-8.7-32.9-17.5-49.2-26.2c16.1,26.9,32.2,53.6,48.3,80.5c-17.7-11.5-35.4-23-53.1-34.3c19.1,28.3,38.4,56.8,57.5,85.1
					c-13.8-8.5-27.6-16.8-41.4-25.3c25.1,31,50.4,61.8,75.4,92.9c-20.7-9.2-41.4-18.4-61.8-27.6c25.5,30.3,51,60.9,76.6,91.3
					c-18.6-11.3-37.2-22.8-55.9-34c26.7,35.6,53.3,71.3,79.8,106.9c-31.3-17.9-62.5-35.6-94-53.6c32,35.9,63.9,71.7,95.6,107.6
					c-16.6-6-33.1-12-49.4-18.2c36.8,30.6,65.1,71.5,80.5,116.8c-20-12.9-40-25.8-60.2-38.9c23.7,37.7,47.6,75.6,71.3,113.4
					c-17.7-12.6-35.2-25.3-52.9-37.9c16.3,41.8,32.6,83.5,49,125.3c-17.9-15.9-35.9-32-54-47.8c13.8,39.8,27.6,79.8,41.2,119.6
					c-13.1-14.5-26-29-39.1-43.7c9.4,39.8,18.9,79.6,28.5,119.3c-9.7-14.5-19.1-29-28.7-43.2c4.1,32.2,8.3,64.4,12.2,96.6
					c-6.2-19.8-12.6-39.8-18.9-59.5c-1.8,36.1-3.7,72.2-5.5,108.1c-2.8-13.8-5.5-27.6-8-41.2c-6.4,25.5-12.6,50.8-19.1,76.3
					c-4.4-12.4-9-24.6-13.3-37c-12.6,27.8-25.5,55.4-38.2,83.2c-0.2-12.6-0.5-25.1-0.9-37.7c-3.7,29.2-30.1,51.5-58.4,59.8
					s-58.4,5.3-87.8,2.3C927.1,1465.7,880,1460.6,838.1,1456.2z"/>
				<path class="st14" d="M1689.5,1400.8c1.1,17.7,2.5,35.4,3.7,53.1c-3.2-34.5-6.7-69-9.9-103.5c-5.7,9.9-11.5,19.8-17.2,29.4
					c5.5-38.2,10.8-76.3,16.3-114.5c-11.3,17-22.5,34-34,51.3c7.8-34.7,15.9-69.7,23.7-104.4c-8.7,10.3-17.5,20.5-26.2,30.8
					c13.3-33.3,26.7-66.4,40-99.8c-6,3.9-17,0.7-23,4.6c9.4-26.7,18.9-53.3,28.3-79.8c-14.9,12.6-29.7,25.1-44.6,37.7
					c15.9-34.3,32-68.7,47.8-103c-17.7,16.1-35.6,32-53.3,48.1c15.6-32,31.3-64.1,46.7-96.1c-17.5,14.7-34.7,29.4-52.2,44.1
					c24.4-34.7,48.7-69.2,73.3-103.9c-21.8,14.9-43.7,29.9-65.5,44.8c23.5-33.3,46.9-66.7,70.4-99.8c-23.7,15.4-47.6,30.8-71.3,46.2
					c29-38.4,57.9-76.8,87.1-115.2c-23.5,13.1-47.1,26.2-70.6,39.1c34.5-38.9,69-77.9,103.2-116.8c-21.2,12.6-42.3,25.5-63.5,38.2
					c28.7-32.6,57.5-65.1,86.2-97.7c-24.6,13.6-49.2,26.9-73.6,40.5c27.8-29.9,55.4-59.5,83.2-89.4c-21.6,11.5-43.2,23-64.8,34.5
					c26.9-28.1,54-56.3,80.9-84.4c-20.5,11-40.7,22.1-61.2,33.1c25.1-25.1,49.9-50.1,75-75c-22.5,9-45.1,17.7-67.4,26.7
					c47.4-30.1,85.3-75.2,107.1-127.1c30.8,35.4,68.1,63.2,99.1,98.6c-16.1-9-32.2-18.2-48.3-27.1c14,20.7,28.3,41.2,42.3,61.8
					c-12.4-6-24.8-11.7-37.2-17.7c23,29.7,46.2,59.5,69.2,89.2c-17.5-9-34.9-17.9-52.4-26.9c20.9,29.2,41.6,58.2,62.5,87.4
					c-18.4-5.1-36.8-10.3-55.2-15.4c26.2,30.6,52.2,60.9,78.4,91.5c-18.2-9.4-36.6-18.9-54.7-28.3c30.6,41.6,60.9,83.2,91.5,124.8
					c-13.1-8.5-26.2-16.8-39.3-25.3c18.9,40.7,37.7,81.2,56.3,121.9c-1.4-6-2.8-11.7-3.9-17.7c8.5,188.3,2.8,377.1-17,564.5
					c-89.4,6.7-179.1,7.6-268.5,2.8c-20.9-1.1-42.8-2.8-61.4-12.4C1707,1453.9,1686.6,1421.8,1689.5,1400.8z"/>
				<path class="st14" d="M1252,1463.1c0.2,5.3,0.2,10.6,0.5,16.1c-13.1-46.4-10.6-96.8,6.4-141.9c-11,10.8-22.1,21.6-33.3,32.4
					c10.6-28.7,21.4-57.7,32-86.5c-12,11.5-24.1,23-36.1,34.7c12.2-23,24.4-46.2,36.3-69.2c-9.2,6.2-18.4,12.2-27.4,18.4
					c21.6-31.3,43.5-62.5,65.1-93.8c-13.6,7.8-26.9,15.9-40.5,23.7c23.7-30.8,47.4-61.4,71-92.2c-14,5.3-28.1,10.6-41.8,15.6
					c25.3-22.8,50.8-45.8,76.1-68.5c-9.2,3.9-18.2,7.8-27.4,11.7c23.7-25.3,47.4-50.8,71-76.1c-18.6,12.2-37,24.1-55.6,36.3
					c21.4-24.6,43-49,64.4-73.6c-17.7,8.5-35.2,16.8-52.9,25.3c18.4-23.2,36.6-46.4,55-69.4c-16.1,6.2-32.2,12.4-48.3,18.6
					c21.4-21.6,42.8-43.5,63.9-65.1c-23.5,10.3-46.7,20.9-70.1,31.3c37.9-36.3,75.9-72.4,113.8-108.8c40.2,32.2,85.1,71,125.3,103.2
					c-23.9-7.6-47.8-15.2-71.7-22.8c16.8,16.3,33.6,32.6,50.4,48.7c-15.6-6.7-31-13.3-46.7-20c20.2,19.5,40.5,39.3,60.7,58.9
					c-18.6-6-37-12-55.6-17.9c25.3,20.9,50.6,41.6,75.6,62.5c-20-2.3-40-4.4-60-6.7c26.4,21.4,52.7,42.8,79.1,63.9
					c-23.5-3.2-46.9-6.2-70.6-9.4c26.4,15.9,52.9,31.7,79.3,47.8c-23.2-3.4-46.7-6.7-69.9-10.1c27.4,18.6,54.5,37,81.9,55.6
					c-11-2.1-22.1-3.9-33.1-6c20.9,22.5,41.6,45.1,62.5,67.6c-19.5-8.7-39.1-17.7-58.9-26.4c25.3,32.2,50.8,64.4,76.1,96.8
					c-17-9-34.3-17.9-51.3-26.9c21.6,37.5,43.2,75,64.8,112.4c-3.2-7.6-14.5-10.1-20.9-4.8c2.8,45.1,2.1,98.4-34.5,125.1
					c-24.8,18.2-58.2,17.7-89,16.3c-56.6-2.3-113.4-4.8-169.9-7.1C1349.5,1481.1,1301.2,1467.7,1252,1463.1z"/>
			</g>
		</g>
	</g>
</g>
</svg>
