<svg id="Layer_1" data-name="Layer 1" xmlns="http://www.w3.org/2000/svg" viewBox="0 0 473.01 345.58"><title>zipline</title><path d="M1010.35,510.22c-1.3-2.1,5.6-5,5.6-5s9.5-31.7,44.2-26.3,33.8,42.7,32.2,51,2.6,5.1.7,9.9c-1.6,4.2-5.9.4-6.9.8s-10.1,12.2-14.3,12.2c-2.5,0-4.6,4.8-4.6,4.8s6.2,11.7,7.1,15.3c16.3,67.4-72.8,120.9-78.5,123.8a52.59,52.59,0,0,0-12.3,8.7c-1.6,1.7-12.4,7.8-14.9,11.5s-6.1.5-8.6-2.7-2.3-3.7-2.3-2.2-4.5,3.3-4.5,3.3-13.8,7.7-26.6,9.5-25-2.9-31.7-5.5-20.3-12.1-22.6-13.7-6.9-5-8.5-6.7-.6-4.8-1.4-6.2c-1.5-2.4-7.4-4.9-10.3-5-2.1-.1-5.7-.8-8,.1s-7.1-2.9-13,.3c-2.4,1.4-11.6,1-19.8,2.3s-8.1-.8-9.8-3.1a18.11,18.11,0,0,1-2.3-5.7s-13.9,2.2-24,6.5-33.2,2.4-40.5-.4-32.6-9.9-42.7-9.9-7.9,7.7-14.1,10.7-9.4,4.1-13.7,11.2-21.4-25.1-22.3-27.9-10.6-18.4-14-24.9-7.5-20.8-7.4-27.3,3-17.6,3-17.6c.6-2.2,2.8-3.1,4.6-1.6h0c1.7-1.7,10.2-2.1,11.9,5.5s5.2,11.4,7.8,14.5,7.7,5.8,8.8,6.6,2.4,3.1,3.9,5,3.4.7,4.7,1.6a26.56,26.56,0,0,0,3.3,1.6s6.7-2.4,9.1-.5-1.3,7.3-1.3,7.3c24.4,7.7,47,5.8,52.8,5.2s26.2-5.5,39-5.3,15.7-1.5,15.7-1.5c16.2-8,20.9-7.7,28.4-7.7,5.6,0,15-3.7,18.7-3.7s15.5-4.8,18.7-5.1,8.1.8,12.6-1.3,10.9-2,12.9-1.9,3.1,1,5.9-.6,2.8-1.7,5.2-.7a6.21,6.21,0,0,0,4.8-.3,91.94,91.94,0,0,1,9.1-3c3.7-.8,8.1-4.1,8.1-4.1,3.1-2.6,6.5-8.5,6.5-8.5-7.6-1.3-2.1-6.2-2.1-6.2-6-2.5-14.9-12-16.1-12.6s-3.2-3.3-3.2-3.3-.7,4.5-17.6-17.6-11.6-35.4-9.1-41,16.3-24.1,19.8-27.8,14.1-16.2,14.1-16.2c3.6-11.3,17-40,17-40a100.41,100.41,0,0,0,0-11.4c-.3-8.4,1.8-10.9,2.5-11.6s1.3-3.2,1.1-4.3-3.4-3.3-3.4-3.3-3.1-1-2.9-2.2-2.9-2.3-4.5-7.9,5.5-12.4,6.2-12.8,10.6-3.3,12.3-4.5,6-1.3,8-1.1,4.4.4,5.3,1.7a53.72,53.72,0,0,0,4.9,5.2,12.13,12.13,0,0,1,4,4.8c1.9,3.7-.6,13.6-.6,13.6l1.7,16.1s14.5,29.6,18.4,35,8.1,18,9.2,22.5,12,16.8,15.6,20,15,11.6,15,11.6ZM994.05,557s-12.8-6.6-12.7-9.3,6.3-7.4,6.3-7.4h0c-3.4-3.4-11.5-12.1-13.8-15.9s-12.6-16-14.6-20.5-8.4-12.6-10.4-17.3-10.8-21.6-12.1-30.8c0,0,.3,12.4-.1,16.2s-.7,19.8-.7,29.7.9,30.3.9,30.3,9.9.1,10.8,11.1c1.9,23.3-8.3,28.6-8.2,30.5s-2.9,6.2-2.8,7.5a21.05,21.05,0,0,0,1.5,8.9,77.34,77.34,0,0,0,4.2,7.7,4.1,4.1,0,0,1,3.7-1.1c2.3.5,1.7-3.7,4.6-3.6s5-1.3,9.1-2.3,8.1-2.4,7.9-4.8-1.6-5.6,5.6-9.3,11.7-7.2,13-9.7,7.2-9.4,7.2-9.4Zm-61.3-110.6a2.28,2.28,0,0,1-2.6.2s4.4,60.7,2,5a39.59,39.59,0,0,1,.6-5.2Zm-5.45,82.5c.2-19.8-1.5-31.8-.5-37.9s.9-24.1,1.1-28-1.2-15.5-1.1-18.6a5.59,5.59,0,0,1,2.5-4.5s0-11-.3-12.2-1,2.4-1.1,4.1.2,3.4.2,4.7-2,4.1-2.3,5.5a43.07,43.07,0,0,0-.5,4.3c.9,4.8-2.2,5-2.6,5.5s-5.5,10.2-6.6,14.2-8.8,14.5-10,15.7S901,497,897.3,507s-6.6,22.8-6.9,26.7,3,20.2,3.4,24.6,3.6,17.9,4.1,20.5,6.5,4.7,9.1,5.2,9,4,9,4l.1-6.2c-2.5-3.1-1.5-12.3-1.2-13.7s-.7-4-1.6-5.9-.4-6.9.3-9.3,1.1-8.9,2.1-10.7,2.4-4.5,3.1-6.1.8-3.1,3.1-4.7a21.48,21.48,0,0,1,5.4-2.5Zm-14.25-66.2s3.8-5.4,4.7-7.1,2.4-11.6,1.9-11.8S907.65,470,905,478Zm-45.7,68.4c-3.1,11.4,6.1,22.6,8.7,26.9s14.8,18.6,16.2,18.7-3-22.1-4.5-32a67.51,67.51,0,0,1,1.7-26.8c2-6.9,11.2-32.6,11.2-32.6S870.55,519.62,867.35,531.12Zm54-92.9c.9-1.3,1.2-9.3,1.8-11.7s2.1-7.1,2.1-7.1C921,411.52,920.35,439.52,921.35,438.22Z" transform="translate(-620.55 -379.63)"/></svg>