<svg id="Layer_1" data-name="Layer 1" xmlns="http://www.w3.org/2000/svg" viewBox="0 0 411.01 900.28"><title>zipline2</title><path d="M560.35,757.23c-1.14-2-5.12-9.94-7.39-11.65s-4.26-9.38-6-11.65,0-4.26,1.42-7.67c1.14-3.41,2.56-4.83.57-9.38-2-4.83-9.38-8-12.78-8.81,0,0-11.09-19-16.49-37.51s-11.08-47.17-21-58.25-15.63-25-15.63-25,5.4-5.69,4.26-7.39l-2.56-4.26s5.12-3.13,6.25-4.83-6.53-11.94-8.52-14.21-6-6.54-6.25-12.79c0-6.54-2.84-31-8-46.32-5.11-15.63-11.08-25.29-21-34.66s-31.82-19.61-40.63-23.59c-8.53-4-10.8-4.55-12.79-7.39s-5.68-6.25-7.95-6-3.7,1.42-6.26-1.71-7.1-5.68-7.1-9.38.28-19.89,2.27-22.45c1.71-2.55,5.69-5.39,6.25-7.95a56.12,56.12,0,0,0,1.14-9.38,2.32,2.32,0,0,1,1.71-2.56l3.12-3.41s3.13-.56,6-5.11c2.56-4.55,6-10.23,6.54-11.65s.56-7.67.56-7.67,6.25-8.81,7.68-13.64a32.13,32.13,0,0,0,.28-14.78c-1.14-6,4.26-9.38-.28-29.84-4.55-20.17-16.49-30.4-26.43-33.81-9.95-3.13-29.84-9.38-42.91-2.56a62.35,62.35,0,0,0-27.28,29c-5.11,11.65-7.67,17.33-8.81,22.16s.57,17,.57,17c.57.28-2.27-.28-3.69,4.55s-2.84,14.49-1.71,19,2.56,7.68,3.13,7.68,2.84,2.55,2.84,2.55.57,11.94.85,13.08a3.11,3.11,0,0,0,1.14,1.7l-6,33.82s-5.11,1.13-6,2.55.29,2-.56,3.13a5.34,5.34,0,0,1-4.55,1.13,10.85,10.85,0,0,0-3.69.29l-1.14-37.23s4.26-22.16,5.68-36.08c1.14-13.64,0-32.4-2-39.79-1.7-7.38-3.41-11.65-2-11.65s7.11-2.84,7.11-4.83,4.26-4.54,2.27-7.67a39.21,39.21,0,0,0-2.56-4.26s2.28,0,2.56-3.7.57-7.38-2-8.52c-2.84-1.42.29-2.27,1.71-4,1.13-1.42,1.13-4,.57-6.53a6,6,0,0,0-2.56-4s1.7-3.7,1.42-6-.57-7.67-3.13-9.09A30.17,30.17,0,0,0,285,221.6V196a8.31,8.31,0,0,0,2.84-4.83c.57-3.12,3.41-22.73,3.41-24.44s-.28-9.09-2.27-11.36-8.53-5.4-8.53-5.4.86-20.74.29-29.55c-.29-8.81-2-15.35-8.53-19.89,0,0,1.71-13.64,0-21.6s-5.68-9.66-7.39-9.66a12.94,12.94,0,0,0-9.37-1.14c-3.41.85-8,2.27-8,4.83s3.13,23,5.4,27.28-1.14,4-3.13,7.67-1.42,20.46-1.42,20.46,0,20.18,1.42,23.87a49.64,49.64,0,0,0,4,7.67l2.56,27.57a16.9,16.9,0,0,0-3.69,11.65C252.89,206.54,254,233,254,233s-9.66,6-9.95,9.66c-.28,4-4,9.1-6.25,15.35s-3.13,10.8-6.54,12.5c-3.12,2-3.69,4-5.4,5.4s-6.25,0-5.39,3.69a33.64,33.64,0,0,0,3.12,7.68s-13.35,18.47-28.7,36.08-25.29,37.23-29,46.61-10.52,19.6-11.08,24.43c-.86,4.83-4,15.92,0,23.59S175,454.6,188.39,462.28c3.69,2,2.84,8.24,5.4,10.23,2.55,1.7,7.1,12.5,8.24,15.06s10.51,13.92,9.09,23.3-12.5,50.86-13.64,72.46-.28,26.42-3.13,34.95a69.93,69.93,0,0,1-6.25,13.92s-17.62,9.38-21,17c-3.12,7.67-9.37,19-9.37,22.74s-4,12.78-6.54,22.73-.28,29.55,0,32.39,6.54,7.67,8.53,10.8,4.26,10.51,9.94,12.22a58.89,58.89,0,0,1-1.14,21.59c-2.55,11.37-2,31.83-2,31.83s-6.26,3.69-6.26,16.2a54.11,54.11,0,0,0,5.4,22.73,25,25,0,0,1-5.11,4.26c-2.84,1.71-3.7,6.25-3.7,8.53s7.11,16.19,15.92,26.42S183,894.76,189,894.2c0,0,3.41,18.75,6.82,24.72s13.64,22.73,14.5,25c.85,2,1.13,11.94,3.12,16.48s10.52,10.23,22.45,6.26,27-11.09,27.56-19.61c.57-8.81-2.84-15.35-7.1-21-4.55-5.68-8-9.38-4.55-15.34s8.81-14.78,8.81-21c0,0,5.68,0,8-6.54s4-36.08,5.4-45.46a60.38,60.38,0,0,0,0-15.91s15.91-9.67,25-21.32a74,74,0,0,0,12.79-24.72s9.38-4.26,14.78-10.8S334.44,751,336.15,751s10.8-1.14,14.77-3.41c0,0,13.93-14.21,18.19-15.34,4-1.14,8.24-13.36,9.09-13.36,1.14,0,4.83,2,7.67-5.68s5.4-29.55,2.85-39.22c0,0,8.24-13.07,8.24-20.74s2-19.61-1.42-25A36.92,36.92,0,0,1,391,616.86s-1.14-4.83,4.55-11.65,7.38-13.36,11.65-17.62a27,27,0,0,0,5.68-7.67s15.63,21.59,21.88,25.57c0,0,8.52,14.21,10.51,20.75,2,6.25,4.55,17.9,12.51,31.54s21.88,31.25,30.4,42.62C496.7,711.48,503,720.29,503,720.29s1.42,2.27.85,4.26-2.27,8.53-.28,11.37,7.67,9.66,8,10.51-.28,9.38-.57,12.22c0,2.84.86,3.41.57,4.55s-2,8,.85,9.38a8.14,8.14,0,0,0,7.68,0c1.7-1.14,6.25-8,6.25-8.53s1.13-1.13,1.13-1.13,2.28,5.39,4.84,7.38,3.12,4.27,3.4,7.39-1.13,4.55-.56,5.4c.28.85-.86,3.41-.86,3.41s-4.83,2-5.68,2.84-6.53-.28-8.24,1.42-2.84,4.27-2,5.4,5.4,1.42,6.25,1.42,7.11.85,8.24.29c1.42-.29,6,0,6.25-.86.29-1.13,6.54-.56,8.81-2.27s4-3.12,4.83-6.82,3.13-12.79,5.69-17.62C561.2,764.34,561.49,759.22,560.35,757.23Zm-316.84,3.13c-2.84,3.69-7.1,11.93-9.37,16.76s-1.71,13.36-4,7.11-3.41-21.31-2-25,6.53-4.83,15.63-6.53C249.48,751.83,246.36,756.38,243.51,760.36ZM266,375c-3.69,8.81,0,21.88,0,21.88s-11.08-1.14-16.76-3.69-6.82-.29-12.51-.86-6-4.26-11.08-6.25S210,387,210,387c12.51-16.2,20.46-41.78,25.58-53.71s12.22-21.88,12.78-21.31,4,2,5.4,0a11.77,11.77,0,0,0,1.71-6.54c0-2.84,3.41-9.09,6.82-9.37s2.84,2.55,4.26,10.23C269.09,320.2,269.66,366.23,266,375Zm7.67-227.61c-.56-1.14-6-1.14-9.37-1.42s-8.81,3.41-8.81,3.41-2.56-31-2-35.8c.28-4.83,5.4-6.82,10.8-8.24,4.83-1.14,7.95,5.4,8.24,13.64C272.78,127.82,274.2,148.85,273.63,147.43Z" transform="translate(-149.96 -67.72)"/></svg>