<svg id="Layer_1" data-name="Layer 1" xmlns="http://www.w3.org/2000/svg" viewBox="0 0 1201.47 842.73"><defs><style>.cls-1{fill:#3d1f13;}</style></defs><title>zipline4</title><path d="M709.88,75.31l-19.45,210a18,18,0,0,0-10.55-7.43c0-2.46-.66-7.37-5.9-6.64-23.75,1.07-39,17.85-50.3,34.57a3.27,3.27,0,0,0,0,1.46,240.78,240.78,0,0,1-8.09,27.34,1.9,1.9,0,0,1-.8,1,55.84,55.84,0,0,0-7.49,11.82,121.69,121.69,0,0,1-13.67,19.44,12.17,12.17,0,0,1-1.79,2.32c0,.46-22.17,35.7-25.55,45.91a212.59,212.59,0,0,1-9.55,21.57c-1.53,3-9.29,18-6.64,29.86s15.26,17.78,21.23,20.7h0a36.07,36.07,0,0,0,18.38,3h3.39a40.83,40.83,0,0,0,6.63-.46h19.91A36.54,36.54,0,0,0,610.08,501,24.35,24.35,0,0,0,612,528.29l.46.73c-5.31,13.6-11,28.2-13.6,34.3a40,40,0,0,0-6.64,3.72A35.57,35.57,0,0,0,573,561.93c-2.19-.66-5.7-1.66-7.76-2.46-6.64-2.85-86.26-13.27-106.69-13.8-2.79,0-11.15-1-21.1-1-20.77,0-35,3.78-43.26,11.81a2.39,2.39,0,0,0-1,.86c-2.59,3-5.57,6.64-7.9,9.82a39.87,39.87,0,0,0-16.92,15,37.82,37.82,0,0,0-.79,29.66,103.15,103.15,0,0,0,11.88,16.38,46.57,46.57,0,0,0,9.42,6.64c1,4.45,2.25,11.35,2.92,15.26,1.19,8,13.27,53.08,13.67,53.55,1.52,5.84,2.72,11.74,3.38,15.52-8.49,11.22-30.19,39.81-36.49,48.37a205.8,205.8,0,0,1-31.92,33.18,25.79,25.79,0,0,0-2.59,1.39c-1.92,1.4-3.38,2.32-4.58,3.12a30.42,30.42,0,0,0-12.73,8,12.29,12.29,0,0,0-2.06,1.59,17.41,17.41,0,0,0-10.22,4.58l-2.06,2.19a102.58,102.58,0,0,0-35.1,19.9A81.85,81.85,0,0,1,257.36,847a37.07,37.07,0,0,0-23.56,19.44,17.18,17.18,0,0,0,0,15.4A101.4,101.4,0,0,0,272.69,912h69.93a18.77,18.77,0,0,0,6-3.85,28.57,28.57,0,0,0,8.63-16.85l.79-.8a38.33,38.33,0,0,0,10.35-25.34c.4-1.46,1.33-4.12,2-6a33.65,33.65,0,0,0,12.48-14.86,21.39,21.39,0,0,1,4.51-3.71,40.53,40.53,0,0,0,9,12.87,26.51,26.51,0,0,0,17.45,5.77,35.8,35.8,0,0,0,16.85-4.31c11.22-5.84,26.54-14.87,34.17-28.47a23,23,0,0,0,18.38-4.18l8.23-4.51a42.58,42.58,0,0,0,11.08-7.3c3.05-3,14.07-17.38,14.47-29.46a15.15,15.15,0,0,0-2.92-9.35,45.14,45.14,0,0,0-15.6-11.22,54.2,54.2,0,0,0-11.28-8.82c1.66-3.12,3.52-6.64,5.25-10.49a22.13,22.13,0,0,0,6.63-.72,58.53,58.53,0,0,0,12.47,1.92,25.63,25.63,0,0,0,11.68-2.85,22.3,22.3,0,0,0,2.86-2.06,58.19,58.19,0,0,0,6.3-6.64c16.85-.73,38.42-1.46,40.67-1.46H612.8a50.81,50.81,0,0,0,11.61.8,107.75,107.75,0,0,0,28.67,4A69.28,69.28,0,0,0,697.34,720c7-4.58,36-24.68,44.19-41.34a18.29,18.29,0,0,0,.86-2.72s33.9-47.64,32.44-50.76a50.81,50.81,0,0,0,14.47-18.38c1.79-3,8.89-11.94,13.67-18,5.77-7.43,11.28-14.26,14.2-18.71,4.91-7.56,13.27-23.82,18.64-33.18l3.05-5.77c1.06-1.72,3.32-5.44,5.84-9.15a178.32,178.32,0,0,0,29,30.58,99.46,99.46,0,0,1,21.36,24.55,31.37,31.37,0,0,0,2.52,3A44.54,44.54,0,0,0,927.18,593a35.3,35.3,0,0,0,24.41-10.81A43.74,43.74,0,0,0,960.82,571a29,29,0,0,0,17.85-5.84c.72,0,1.32-.86,1.85-1.06a23.86,23.86,0,0,0,10.82-15.66,21.1,21.1,0,0,0,3.58-13.8,19.14,19.14,0,0,0-.66-2.58,18.45,18.45,0,0,0-5.91-17.85,12.51,12.51,0,0,0-2.59-5.84,23.69,23.69,0,0,0-16.85-8.76h-1.39a37.34,37.34,0,0,0-12.34,2.19c-.8.46-3,.86-4.78,1.52a25.5,25.5,0,0,0-16.79,1.6,19.91,19.91,0,0,0-7.5,7.16,52.33,52.33,0,0,1-4.44-5,192.69,192.69,0,0,1-19.51-30.52,21.39,21.39,0,0,0-2.19-9.16c-11-24.35-29-54.21-53.08-59.72a2.51,2.51,0,0,0-1.53-.46,105.09,105.09,0,0,0-15.85-1.06c0-.34-1.2-.53-1.26-.53a18.83,18.83,0,0,0-8.7-2.59,17,17,0,0,0-6.63-1.73v-.66l.66-.93c1.46-2.65,3-5,4.18-7.3.73-.6,1.46-.93,2.13-1.59a6,6,0,0,0,1.19-1.46A24.28,24.28,0,0,0,832,376.74l1-2.32a44.1,44.1,0,0,0,3.45-11.28,18.34,18.34,0,0,0,2.65-5.64,6.58,6.58,0,0,0,2.46-1.53A15,15,0,0,0,847,343.7a18.62,18.62,0,0,0-1.12-5.11c.73-12.41,0-40.87-17-60.84a61.26,61.26,0,0,0-48.11-19.91c-42.13,0-64.75,24.15-66.94,72.46v2.05a15.65,15.65,0,0,0-.53,13.27,14.4,14.4,0,0,0,4.91,6.24,63,63,0,0,0,5,21.43,79,79,0,0,0,5.58,27,48.23,48.23,0,0,0-7.57-.87H720a37.89,37.89,0,0,0-13.27-2,45,45,0,0,0-7.1.4L730.11,69.27" transform="translate(109.93 -69.27)"/><path class="cls-1" d="M-109.93,715.53v9" transform="translate(109.93 -69.27)"/><path d="M1049.77,524.27s14.61-4,25-6.64c9.33-2.36,18.33-4.49,16.57-9.23-3.07-8.29-16.33-3.79-20.18-2.81s-15.29,3-19.67,5.34c0,0,10.92-7.77,6.58-14.23-3.53-5.25-7.15-3.5-9.25-2.37,3.17-2.8,6.22-6.17,2.61-11-3-4-7-2.52-8.7-1.78,3-3.56,4.3-6.14.53-10.4-2-2.26-5.32-4.11-10.42-1.27-4.44,2.09-13,7.93-15.52,7.84,0,0,0-10.48.65-18.26s-2.91-22.85-11.46-20.26c-2.69.82,0,8.19,0,8.19s-.71,6-1.18,10.06-2.63,12.73-3.22,22.78c-3.74,4.95-15.87,14.91-13.83,22.16L977.56,508s-7.3,18,17.58,34.44c0,0,4.27-2.17,11.32-4.94C1013.85,540.38,1035.6,538,1049.77,524.27Z" transform="translate(109.93 -69.27)"/></svg>