<svg id="Layer_1" data-name="Layer 1" xmlns="http://www.w3.org/2000/svg" viewBox="0 0 1000.56 477.96"><defs><style>.cls-1{fill-rule:evenodd;}</style></defs><title>zipline3</title><path class="cls-1" d="M1206.71,677c-6.31-29.92-21.44-40.39-21.44-40.39s-4.65-5.48-6.14.67c0,0-33.74,10.3-34.07,25.92a38.33,38.33,0,0,0-7.65,2.83c-3.49,1.83-103.87-5.65-136.44,9.31,0,0-.5-6.82-2.32-7.81-3.16-1.67-13.3,4.48-13.3,4.48s-.66-4.15-5.82-3.65c0,0-2.32-51.36-2.49-92.74-.33-41.38-6.31-118.32-5.32-166.18,0,0,1.33-14-2.66-15.79,0,0,2.16.66,2.33-5.65s.67-17.95.67-17.95,2.49-6.32,1.82-16.95-1.33-4.32-5.65-18.61-8.14-25.1-15.12-24.77c-7,.5-19.61,1.83-19.61,1.83s-3.82.33-6,5.32a79.26,79.26,0,0,0-4.66,20.27c0,4.66-1,7,.17,19.12,0,0,0,7.14,5.48,7.64,0,0,2.33,23.93,3,33.4,0,0-5.32,5.49-2.33,17.12,0,0,1.49,6.82.66,12,0,0-4.15,1-3.32,6s6.81,28.09,6.48,41.55,7.31,59.33,8.31,77.61,6.15,45.86,1.83,70c-4.16,24.1-2.49,57.67-2.49,57.67l-23.77,7.31s-31.08-3.65-59-2c0,0-12.79-6.65-16-7.81a78.49,78.49,0,0,0-22.77-14.46s-4.32-11-15.79-16l4.82-11.8-4.65-9.8s-2.82-5.65-5.32-1.16c-2.66,4.48-4.82,9.3-4.82,9.3S782.6,631.8,769,617c0,0,1.17-5-9.8-7.14,0,0-5-34.07-6.32-44.54s.67-29.75-7.31-50.35c0,0-.66-17.29.83-26.1s11.47-51.68,16.29-61.49c0,0,3-6.81.33-13a12.81,12.81,0,0,0,3.82-6.48c1-4,12-29.58,11.47-34.9-.5-5.48-2.66-9.14-6.15-18.61-3.65-9.47-7.14-24.76-12.46-24.93s-20.94,1.16-20.94,1.16-4.32.5-6.65,7.15-2.66,23.1-3.82,28.92c-1.17,6,2,9.3,2,9.3s1,4.49,4,4.82l-3.16,39.39a15.42,15.42,0,0,0-2.82,9.64,36.93,36.93,0,0,1-1.5,11,122.68,122.68,0,0,0-2.32,26.09c.16,14,1.82,30.41-1.33,38.72s-6,16.62-2.66,23.93c0,0-6.48,4.49-6.65,11l-6.48-.33s-1-3.33-8.31-.5-9.31,8.81-13.3,10c-2,.66-3.15-.83-8.8.66-5.82,1.5-8.81,6.82-8.81,6.82S639,573,630.37,576.29s-30.74,4-39.55,15.12c0,0-11.47-2.16-17.78,4.16,0,0-19.78,4.48-25.93,1.16-8-4.32-2.66-16.79.34-15.62,5.31,2.16,25.09-5,12.13-9,0,0,2-17.78-14.13-42.54s-43-34.73-71.46-21.27c-28.42,13.29-43,32.9-42,64.15,0,0-22.11,8.31,16.95,12.63a17.94,17.94,0,0,1-1.17,12.46c-3.15,6.15-5.65,12-1.33,11.47a28.86,28.86,0,0,1,7.32,0,14.94,14.94,0,0,1,.16,5.32c-.66,2.32,1.5,3.32,4.16,4.15s-2.16,2.16-.67,4.65c1.5,2.33,3.82,3.49,4,6.49s-2,12.79,7,10.46c9.14-2.32,16.29-5,16.29-5v7.31S476,648.25,471,656.56a95.29,95.29,0,0,1-18.45,9.3c-9.47,3.33-18.78,8.15-27.09,10.47-8.47,2.16-40.71,3.16-72.45,24.6,0,0-7,.17-9.31,0s-5.82-2.49-11.3,1.16-7.81,6-17.12,5.65-37.72,4.82-37.72,4.82-11.47-4-20.61-3.15-19.44,7.64-19.44,7.64-8.65,2-6.82,6.81a8.62,8.62,0,0,0,6.32,5.49s-1.83,7.31,6,8,20.77-5,29.25-.83,19.78,13.3,37.56,9.64c0,0,14.29.17,22.27-9.3a23.32,23.32,0,0,1,12.63,1c6.81,2.5,31.9-8.8,31.9-8.8s16.12-3.16,23.44-3.33c7.14-.16,60.66-4.82,72.62-10.14,12-5.48,61.49-25.42,61.49-25.42s5,12.46,11,19.11,18.11,10.14,38.72,10c0,0,12.63,10.47,18.45,14.13,5.81,3.49,15.79,3.15,21.93,4.65s10.47,5.82,19.45,4.15,10.8,7.81,22.1,9.64,41.05.5,41.05.5,8.14-1,11.63-1.66c0,0,7.65,6.15,11.64,6.15s17.61,3.82,17.61,3.82,9.47,4.65,19.78,2.49c10.14-2.32,14,.5,16.78,3.49,3,3,21.61,21.11,21.61,21.11a19.59,19.59,0,0,0,6.48-4.49c3-3.16,15.79-9,9-17,0,0,0,.5,18.78.67s61,1,71.46-2.83,17,3.66,47.2-2c30.08-5.49,73.46-20,68.3-34.9,0,0,54.35-15.46,70.47-17.45s55.34-1,55.34-1,3.49,5.15,3.49,7.64c-.17,2.5,9,3.83,11.63,5.16s10,6.15,13,7.64,18.12,10.47,20.44,14.63.5,27.92,25.1,22.93c0,0,18.61-47.53-19.78-89.74ZM964.08,538.73c2.66,35.23-4.32,32.91-2.16,50.52,2,17,0,38.39,0,38.39.16-8.64-5.49-61.66-7-67.31-8-30.74,6.31-93.39,6.31-93.39Zm-20.78-9c-.33,13.62-4.15-68.81-6.48-90.08-.49-4.32,5-6.31,5-6.31S943.3,526.27,943.3,529.76Zm8.15-62.49s-1.66-12.63-1.5-36.73c.33-24.26-11.46-33.07-11.46-33.07,6-2.16,3-24.93,2.82-28.92a7.61,7.61,0,0,0-2.82-5.81c6.31,1.49,20.94.66,20.94.66-3.49,1.17,0,30.25,0,30.25-3.49,1.33-3.49,19.11-3,24.26s-5,49.36-5,49.36Zm14.29-64s-.5,7.81-1.66,10.8c-1.16,3.16-2.83-15.79,1.66-10.8Zm-27.42,19.44s-5.15-14.79-1.5-14.62c3.83.16,1.33,13.62,1.5,14.62ZM763,379c-3.82,4.16-3.16,18.62-5.32,25.43-2.32,6.81-1.33,8.64-1.33,8.64-4.65,2.49-6.31,13.8-5.81,19.78s-2.33,16.62-3.66,22.77-8,23.76-8.64,31.07a18.57,18.57,0,0,1-5.32,11.47c-1.83-3.16,2.66-27.92,4.65-34.73s.84-30.91,2.16-38.89-.33-10.47-.33-10.47c4.82-.5,2.33-14.46,3.66-21.44a47.09,47.09,0,0,0,.83-12.13c7.64.33,19.11-1.5,19.11-1.5Zm-7.81,53.52s-1-11.8,3.16-10.14c2.49,1-12.13,50.19-12.13,50.19ZM730.25,481.4s.83-58.5,4.49-57.17c3.66,1.16-3.32,50.68-3.32,50.68ZM750.53,606s-8.31-11.8-10.14-18.45c-1.66-6.81-9.64-24.1-9.64-24.1,4.49-8.47,3.82-30.58,3.82-30.58,3.16-1,5.15-7.47,5.15-7.47,3.16,2.82,4,43.87,4.33,52,.49,8,6.48,28.59,6.48,28.59Zm36.23,30.57c-3.16,12.3-16.46-9.47-16.46-9.47l16.46,9.47ZM765,650.91c-6.32-10.14-7-24.6-7-24.6s2.65,4.65,6,9.81,1,14.79,1,14.79ZM633.53,578.78c-16.12,12.8-44.2,16.79-40.72,14.29,3.49-2.32,20.61-8,27.76-9.47a49.69,49.69,0,0,0,13-4.82Zm83.09,41.38c-6.14,5.65-14.79,22.94-14.62,30.41s-8.48,10-8.48,10c-12.13,1.82-33.23-14-36.72-17S637.85,634.12,632,630.8c-5.82-3.49-22.11-9.14-27.09-13-5.16-3.83-16.79-8.15-16.79-8.15s36.23-16.78,40.05-18.61,38.23-16.45,51.19-23.93a108,108,0,0,1,27.09-10.8s-1.33,25.76-2.5,29.58c-1.16,3.65,6.32,12.63,10.31,10.63,4.15-2-.33-9.64-.17-14.79,0-5,4.32-4.15,4.32-4.15s3.33,5.65,1.83,29.58C716.46,611.69,716.46,620.16,716.62,620.16Z" transform="translate(-230.44 -309.72)"/></svg>